<?xml version="1.0" encoding="UTF-8" standalone="no"?>
<!-- Created with Inkscape (http://www.inkscape.org/) -->

<svg
   version="1.1"
   id="svg1"
   width="1024"
   height="1024"
   viewBox="0 0 1024 1024"
   sodipodi:docname="AeonFarbe.svg"
   inkscape:version="1.4 (86a8ad7, 2024-10-11)"
   xmlns:inkscape="http://www.inkscape.org/namespaces/inkscape"
   xmlns:sodipodi="http://sodipodi.sourceforge.net/DTD/sodipodi-0.dtd"
   xmlns="http://www.w3.org/2000/svg"
   xmlns:svg="http://www.w3.org/2000/svg">
  <defs
     id="defs1" />
  <sodipodi:namedview
     id="namedview1"
     pagecolor="#ffffff"
     bordercolor="#000000"
     borderopacity="0.25"
     inkscape:showpageshadow="2"
     inkscape:pageopacity="0.0"
     inkscape:pagecheckerboard="0"
     inkscape:deskcolor="#d1d1d1"
     showgrid="false"
     inkscape:zoom="0.80585311"
     inkscape:cx="281.68905"
     inkscape:cy="467.82719"
     inkscape:window-width="1921"
     inkscape:window-height="1360"
     inkscape:window-x="2898"
     inkscape:window-y="0"
     inkscape:window-maximized="0"
     inkscape:current-layer="g1" />
  <g
     inkscape:groupmode="layer"
     inkscape:label="Image"
     id="g1">
    <path
       style="fill:#000000"
       d="m 453.5,982.30857 c -39.9455,-2.6439 -80.43187,-8.55209 -111.5,-16.27123 -31.21778,-7.75633 -40.90255,-13.97423 -45.69212,-29.33568 -1.52235,-4.88256 -2.12375,-5.72651 -3.80788,-5.34359 -13.3446,3.03418 -16.92328,3.60965 -22.5399,3.62457 -24.23143,0.0643 -87.31131,-41.9126 -133.21006,-88.64554 -39.846063,-40.57025 -34.27663,-78.50934 19.01775,-129.54929 4.86565,-4.65983 6.08907,-6.4912 6.64065,-9.9406 1.66211,-10.39429 64.17434,-59.48919 110.39483,-86.70022 7.30328,-4.2996 7.30328,-4.2996 -2.53519,-14.51425 -75.91618,-78.81886 -88.7268,-195.69933 -31.74857,-289.66491 22.02209,-36.31772 32.5868,-83.35793 29.38147,-130.82334 -1.80039,-26.66062 1.30288,-34.14923 16.65813,-40.19832 31.87493,-12.5569 52.11892,12.79996 52.79385,66.12755 0.15984,12.62938 0.96134,12.68895 3.80202,0.28256 6.41087,-27.99879 -0.47028,-76.94231 -14.60733,-103.89756 -11.45756,-21.846225 -0.20684,-35.636557 40.45875,-49.591466 24.56282,-8.429039 29.54086,-5.134447 37.00854,24.493143 4.05376,16.083068 13.15414,46.142023 14.32361,47.311483 0.18768,0.18768 4.7192,-1.7046 10.07005,-4.20506 5.35085,-2.50047 12.14526,-5.45041 15.09869,-6.55543 4.41999,-1.65373 5.5494,-2.57537 6.38486,-5.21026 1.69669,-5.35104 4.96194,-24.54889 6.15724,-36.20113 1.93651,-18.877854 7.09058,-22.647209 26.72669,-19.546188 23.70987,3.744366 26.9189,9.177051 22.76884,38.546188 -3.51747,24.89246 -3.57603,24.15635 2.12223,26.67696 9.53204,4.21648 8.36919,5.20301 25.52073,-21.65116 19.6837,-30.818779 22.16969,-32.493319 37.34033,-25.152072 26.96462,13.048488 35.4002,34.010852 18.05301,44.861582 -4.59626,2.87498 -25.29732,25.9954 -27.20968,30.38972 -0.26928,0.61876 2.0305,4.9912 5.11062,9.71653 6.01293,9.22465 11.93899,21.77805 16.50094,34.9546 2.84031,8.20384 2.84031,8.20384 22.1786,8.85496 43.70886,1.47168 57.63315,13.77212 53.85486,47.57432 -2.47848,22.17356 -9.99884,28.07412 -36.01656,28.259 -9.39871,0.0668 -10.08392,1.00924 -3.78854,5.21088 82.801,55.26277 93.68155,203.5268 24.3443,331.72807 -5.67602,10.49469 -6.22662,8.84045 5.19424,15.60565 15.91945,9.42995 46.57738,29.92945 64.35845,43.03341 C 731.67013,690.2417 734.60473,692 738.87361,692 c 17.48011,0 42.52995,-84.10286 31.27401,-105 -5.42385,-10.06961 -8.62473,-21.97175 -11.63026,-43.24598 -2.27314,-16.09007 -2.96536,-18.84275 -7.4184,-29.5 -19.48533,-46.63326 14.65664,-58.71671 37.79895,-13.37772 5.80679,11.3763 5.80679,11.3763 13.78615,-4 19.78548,-38.12678 37.09331,-60.65393 49.4116,-64.31207 18.67793,-5.54675 25.39107,14.02234 13.82927,40.31289 -1.05871,2.40741 -1.92493,4.59891 -1.92493,4.86999 0,0.27108 5.59086,-4.91132 12.42414,-11.51646 33.46862,-32.35117 60.74656,-15.98401 34.5875,20.75301 -2.74606,3.85648 -2.5248,4.58506 0.73836,2.43124 13.45329,-8.87973 29.79916,-6.01854 30.39537,5.32041 0.67188,12.77827 -2.78704,18.57239 -39.55809,66.26469 -26.00463,33.72817 -30.56731,38.84526 -39.7232,44.54999 -2.40024,1.49551 -4.45938,2.79136 -4.57586,2.87967 -0.11648,0.0883 -1.60125,7.04767 -3.29949,15.46524 C 825.23087,771.39367 777.73606,820.85215 702,783.2089 c -11.5,-5.71586 -11.5,-5.71586 -15.0704,-1.83285 -6.8645,7.46554 -15.49203,5.4795 -40.78446,-9.38846 -5.35485,-3.14782 -5.35485,-3.14782 -4.73529,1.6823 0.34077,2.65656 1.72836,16.98011 3.08354,31.83011 1.35519,14.85 2.9331,31.275 3.50647,36.5 0.57337,5.225 2.63049,26.375 4.57139,47 1.94089,20.625 3.78825,40.22484 4.10524,43.5552 0.97002,10.19133 -2.38508,14.21619 -17.74667,21.28931 C 592.63919,975.15867 518.17457,986.58922 453.5,982.30857 Z M 542,969.09993 c 38.79985,-5.06171 77.3112,-15.6636 99.25,-27.32279 6.75526,-3.59003 6.47099,-1.93366 4.26465,-24.84966 C 644.6977,908.44236 642.21344,882.15 639.99407,858.5 633.64083,790.79873 629.15118,746.27108 626.35582,723.23778 623.64453,700.89727 623.77323,699 628,699 c 4.31529,0 5.25204,3.46471 9.05702,33.49869 1.6722,13.19929 3.35596,24.30805 3.74167,24.68614 3.82551,3.74986 35.35349,20.07774 37.31516,19.32497 2.37752,-0.91233 12.42169,-17.66956 20.38524,-34.0098 6.67373,-13.69367 21.78896,-48.61124 21.23399,-49.05249 C 704.1075,681.02364 634.63152,634.9101 633.49471,636.20821 633.35417,636.3687 631.75664,638.975 629.94465,642 599.90916,692.14227 547.41526,736.52978 511.5,742.15378 468.45643,748.89402 363.27028,693.77662 293.25838,627.79547 c -5.24161,-4.93984 -5.24161,-4.93984 -14,0.33906 -35.49871,21.396 -102.35751,70.7483 -104.93146,77.45592 -0.36166,0.94245 1.87544,3.6357 6.3063,7.59219 17.45919,15.58999 34.86497,35.43511 53.64433,61.16233 9.34876,12.80754 5.99843,14.65537 68.2922,-37.66575 10.72161,-9.00518 14.04348,-10.13894 16.46263,-5.61872 1.5806,2.95339 -0.54183,5.92073 -9.22649,12.89941 -8.03907,6.45991 -8.03907,6.45991 -7.38153,12.87787 0.66131,6.45477 8.06856,60.92713 9.08632,66.82013 0.54539,3.15791 0.54539,3.15791 11.26736,3.05918 37.18333,-0.34238 74.46776,21.80151 69.2616,41.13571 -1.05091,3.90275 -4.51944,8.4738 -7.07683,9.32626 -1.05833,0.35278 -0.5546,1.78198 2.06916,5.87076 7.57701,11.80775 4.01155,25.99324 -8.137,32.37376 -5.41847,2.84583 -5.59819,3.0769 -6.75721,8.68831 -3.40238,16.47272 -19.04677,19.78276 -43.60329,9.2256 -15.59932,-6.70635 -19.81115,-7.55755 -21.52743,-4.35064 -9.92742,18.54956 51.13846,36.7084 142.49296,42.37238 19.5398,1.21147 76.57344,-0.18157 92.5,-2.2593 z M 358.10212,926.7177 c 11.91244,-8.00139 -7.60189,-24.25878 -38.60212,-32.15941 -12,-3.05829 -12,-3.05829 -12.31282,-6.3011 -1.2043,-12.48415 38.59873,-0.9382 56.93435,16.51534 9.08503,8.64798 20.13911,-2.99164 14.37568,-15.13717 C 373.58413,879.28181 357.55986,871.37486 333.5,867.4321 322.58922,865.64413 321,864.88993 321,861.5 c 0,-7.65253 28.30299,-4.93822 47.01807,4.50912 15.19005,7.66791 18.82132,-3.18019 4.71744,-14.09295 -10.88973,-8.42585 -26.53632,-13.25645 -43.23551,-13.3482 -17.90229,-0.0983 -24.73532,2.95838 -55.86301,24.99007 -10.14283,7.17892 -20.77403,0.13889 -62.75707,-41.55804 -23.02488,-22.86797 -23.21468,-23.8366 -7.28182,-37.16218 17.56125,-14.68748 16.55472,-12.20023 8.85058,-21.87078 -9.70858,-12.18659 -12.13163,-14.87347 -27.70102,-30.71704 -16.68746,-16.98132 -13.21683,-16.58648 -26.36978,-3 -58.563933,60.49426 -50.51854,89.8983 43.62212,159.42878 49.3599,36.45628 62.18507,40.85214 91.5,31.36191 17.13585,-5.54746 19.86859,-5.38369 36.00451,2.15772 13.46588,6.2935 14.17509,6.5237 20.59761,6.68559 3.27396,0.0825 5.58273,-0.54267 8,-2.1663 z m -81.36593,-77.73094 c 5.92009,-4.40728 14.02014,-9.69478 18.0001,-11.75 8.70414,-4.49475 8.28828,-3.54342 6.66058,-15.23676 -0.72732,-5.225 -2.9545,-21.65 -4.94929,-36.5 -3.64685,-27.14854 -3.97609,-28.83321 -5.25195,-26.87374 -1.65375,2.53982 -47.3646,38.37338 -48.94645,38.37 -3.3374,-0.007 -8.05789,-3.86981 -12.72917,-10.41601 -5.68348,-7.96469 -3.55238,-8.31199 -16.02484,2.61156 -13.00482,11.3898 -10.1022,16.42299 28.47089,49.36894 25.08126,21.42236 21.45845,20.33604 34.77013,10.42601 z M 754,784.08087 c 41.69776,-6.88046 71.24379,-59.02601 91.45042,-161.40014 4.14116,-20.98065 2.83361,-18.27451 12.35858,-25.57764 11.40529,-8.74485 11.4121,-8.75275 42.30122,-49.10309 31.382,-40.99419 35.92547,-48.56431 31.68978,-52.8 -5.59386,-5.59386 -32.38802,10.25904 -46.5809,27.55983 -10.6649,13.00025 -12.83706,14.96868 -15.01404,13.60584 -3.88151,-2.42989 -2.63331,-5.56388 6.93841,-17.42101 20.06299,-24.85339 36.30993,-52.79004 34.32954,-59.0297 -2.49873,-7.87279 -13.16677,-0.53397 -43.16353,29.69328 C 840.64102,517.4893 841.11104,517.11104 838,514 c -2.69107,-2.69107 -2.66468,-2.79673 2.62946,-10.52861 28.11164,-41.05593 28.09518,-83.39016 -0.0188,-48.32778 -26.68729,33.2831 -37.05639,57.61679 -28.41663,66.6867 16.40768,17.22455 26.09353,53.77635 13.78335,52.01466 -3.04025,-0.43508 -3.93726,-2.28021 -9.00601,-18.52517 -5.51034,-17.6602 -8.71072,-22.22934 -19.47138,-27.79911 -8,-4.14084 -8,-4.14084 -14.5,-17.169 -17.54715,-35.17034 -38.03053,-37.14975 -23.53773,-2.27458 6.08159,14.63461 7.02257,18.25291 9.47221,36.42289 2.56334,19.0133 5.09362,28.61139 10.24212,38.85124 4.89314,9.73198 4.98946,20.33971 0.40678,44.79784 -9.78779,52.23813 -27.2938,79.75501 -46.70107,73.40722 -2.80658,-0.91799 -5.19841,-1.5312 -5.31517,-1.36268 -0.11676,0.16851 -1.02373,2.55638 -2.01549,5.30638 -4.12113,11.42723 -14.44282,34.94247 -21.25914,48.43335 -8.79201,17.40115 -8.84813,15.03446 0.4715,19.88306 17.55406,9.13263 34.58189,12.6825 49.23599,10.26446 z M 522.5,728.56514 c 41.30882,-14.292 92.42656,-70.80519 121.26561,-134.06514 60.36775,-132.4198 41.02176,-264.67041 -45.39387,-310.31589 -8.35548,-4.41344 -40.68406,13.58115 -59.30979,33.01275 -8.87195,9.25581 -10.57909,10.09916 -13.62659,6.73171 -11.70188,-12.93043 51.22733,-54.46345 79.53248,-52.49111 8.48477,0.59123 26.53959,-0.61155 27.7786,-1.85057 0.25946,-0.25946 -0.47118,-1.79595 -1.62365,-3.41444 -5.94146,-8.34402 -8.5239,-20.28543 -7.99437,-36.96672 C 623.5,217.5 623.5,217.5 616,216.68013 c -46.18176,-5.04838 -118.00096,11.76107 -162.50006,38.03354 -16.29792,9.62236 -17.07662,10.31835 -19.01855,16.99834 -5.75693,19.80315 -27.689,42.97659 -52.29501,55.25494 -7.05411,3.52 -13.90626,5.80515 -39.29612,13.10503 -28.67763,8.24516 -36.12002,45.8935 -16.49221,83.42802 11.13239,21.2886 13.62624,30 8.58825,30 -2.1906,0 -3.28759,-1.59746 -9.22359,-13.4316 -9.99973,-19.93566 -13.74454,-24.91537 -13.7757,-18.3184 -0.007,1.5125 -2.06413,7.7 -4.57109,13.75 -2.50695,6.05 -5.46171,13.23603 -6.56613,15.96896 -5.29843,13.11117 -3.67151,25.08811 6.35927,46.81516 4.91973,10.65631 5.32158,13.19129 2.27638,14.35984 -3.14531,1.20697 -9.89728,-9.6441 -17.20118,-27.64396 -4.03778,-9.95079 -4.87187,23.99803 -0.85992,35 5.16563,14.16568 5.10994,13.89429 3.2356,15.76863 -2.37117,2.37117 -4.30164,0.90675 -8.35686,-6.33934 -11.43476,-20.43222 -9.92919,-40.08323 6.43259,-83.9597 5.49072,-14.72415 9.38331,-36.98551 10.70261,-61.20717 0.40393,-7.41589 1.18833,-7.63738 -12.21007,3.44772 -19.66179,16.26711 -23.64054,23.54336 -26.76106,48.94 C 262.92042,449.23836 261.31002,454 258.59939,454 c -2.697,0 -3.33167,-2.40102 -2.51116,-9.5 2.4552,-21.24215 -0.45395,-21.03107 -6.69771,0.48596 -5.13688,17.7025 -11.08155,11.0927 -6.46006,-7.18284 5.87337,-23.226 21.92393,-44.52946 48.3395,-64.15966 15.97111,-11.86861 32.55537,-33.32234 24.12295,-31.20594 -9.15297,2.29725 -22.89409,11.06422 -32.94919,21.02191 -8.47161,8.38954 -8.085,8.17518 -10.61498,5.88558 -11.02061,-9.97351 23.34694,-36.09025 53.78959,-40.87602 5.43492,-0.85441 14.10374,-2.21456 19.26406,-3.02257 40.68625,-6.37071 71.6221,-30.7755 79.20677,-62.48493 12.82457,-53.61604 57.74825,-77.19696 102.25201,-53.67318 5.84116,3.08752 5.84116,3.08752 13,1.8015 11.44056,-2.05521 26.80032,-4.04463 31.40883,-4.06814 5.39871,-0.0275 5.43986,-0.89865 0.65253,-13.81534 -4.26993,-11.52071 -8.34622,-19.13007 -15.85211,-29.59173 -8.65336,-12.06098 -9.32637,-9.54207 8.36371,-31.30361 5.72777,-7.04604 10.88152,-13.41704 11.45276,-14.15777 0.76063,-0.98629 0.5765,-1.6054 -0.68792,-2.313 -4.67271,-2.61498 -14.43115,-11.81046 -18.52716,-17.458328 -4.59239,-6.332315 -4.59239,-6.332315 -13.43603,7.392898 -23.46625,36.41931 -20.32433,33.87402 -34.76602,28.16421 -15.61685,-6.17444 -16.22355,-7.59993 -13.54192,-31.81781 C 495.28353,94.21284 496,87.12534 496,86.371187 c 0,-0.945385 -1.31977,-1.373383 -4.25,-1.378259 -4.66241,-0.0078 -21.32243,-2.402729 -23.81382,-3.42337 -1.31635,-0.539266 -1.92,1.540866 -3.81463,13.144898 C 460.97502,113.98599 456.02516,127 451.84178,127 c -4.75173,0 -30.91874,14.27003 -43.83935,23.90754 -34.31063,25.59238 -59.251,67.80998 -71.09762,120.34991 C 333.83214,284.88482 332.90877,287 330.03254,287 c -4.58402,0 -6.85676,-8.54001 -5.25603,-19.75 1.09246,-7.6505 2.04446,-7.73222 -12.33155,1.05849 -43.1807,26.40433 -53.40025,34.90203 -64.25506,53.42902 C 186.42677,427.1548 207.39481,539.36967 304.60958,623.67922 392.44542,699.85489 481.53286,742.73891 522.5,728.56514 Z M 494,588.11105 c -22.41381,-4.95085 -40.96442,-17.51059 -52.50186,-35.5465 -17.01008,-26.59104 -3.7107,-45.89248 22.89282,-33.22446 21.80788,10.38444 54.56852,11.38698 85.51579,2.61696 22.04927,-6.24845 27.26171,-4.31736 28.81658,10.6759 3.51716,33.91504 -43.36422,64.61368 -84.72333,55.4781 z m 32.6397,-8.65357 c 9.36842,-1.92744 -7.7271,-16.57499 -24.38211,-20.89073 -19.49918,-5.05275 -44.55932,-1.80728 -38.25759,4.95463 10.05087,10.78482 44.75893,19.61486 62.6397,15.9361 z M 412.28604,494.61184 c -31.00487,-10.15032 -39.53893,-57.38494 -15.18281,-84.03441 24.57845,-26.89274 63.36859,-4.5972 63.36859,36.42257 0,30.28749 -25.16165,55.14944 -48.18578,47.61184 z m 22.24135,-3.55071 c 18.51708,-9.11593 28.79689,-32.71431 24.03566,-55.17641 -6.98137,-32.93615 -38.5296,-46.82293 -59.26533,-26.0872 -34.26058,34.26058 -5.24537,101.18941 35.22967,81.26361 z m -18.89013,-11.49331 c -24.26529,-8.85533 -21.20498,-62.49521 3.72586,-65.30528 31.19574,-3.51621 34.69719,60.98844 3.59037,66.14271 -1.95267,0.32355 -5.13216,-0.0404 -7.31623,-0.83743 z M 580.7626,494.5444 c -25.30987,-9.69069 -35.49871,-45.74524 -20.74817,-73.42009 27.79935,-52.15692 88.55229,-0.75491 63.08567,53.37569 -7.89329,16.7776 -27.10897,25.87514 -42.3375,20.0444 z m 21.55346,-1.13643 c 22.47813,-7.65906 32.62137,-43.76176 19.70683,-70.1422 -16.35489,-33.408 -53.66631,-29.01663 -65.10135,7.6621 -11.41325,36.60885 14.92606,72.86175 45.39452,62.4801 z m -19.89374,-13.77143 c -18.48699,-8.37999 -17.81143,-56.48309 0.89278,-63.56993 15.10307,-5.7224 27.6849,9.17157 27.6849,32.77251 0,22.81748 -13.6737,37.55327 -28.57768,30.79742 z M 384.03518,378.06574 c -9.97463,-18.63776 29.49787,-44.92271 51.66476,-34.40384 10.70012,5.07754 6.04229,16.17415 -5.975,14.23458 -15.21006,-2.45488 -31.02741,4.87328 -37.31947,17.29006 -2.69271,5.31382 -6.3872,6.58464 -8.37029,2.8792 z m 233.21221,-5.00485 c -8.15845,-9.47359 -23.9953,-14.43341 -35.7356,-11.19176 -11.47488,3.16837 -15.79559,-9.50365 -5.05479,-14.82499 14.8383,-7.35137 39.02772,0.87484 47.9942,16.32163 7.2534,12.49562 1.67421,20.00427 -7.20381,9.69512 z M 289.5,269.00975 c 3.85,-2.57645 13.3673,-8.36531 21.14955,-12.86413 7.78225,-4.49882 14.49542,-8.95951 14.91815,-9.91265 2.70439,-6.09752 1.29153,-52.82745 -1.9723,-65.23297 -3.06285,-11.64166 -2.72998,-11.41442 -8.62004,-5.88454 -9.04172,8.48881 -16.20929,11.28402 -27.24284,10.62414 -9.23252,-0.55217 -9.23252,-0.55217 -8.90727,16.10412 0.5157,26.40912 -2.95203,50.61489 -10.38067,72.45997 C 266.55006,279.87484 265,284.5505 265,284.69406 c 0,0.29974 14.17556,-8.77511 24.5,-15.68431 z M 646.61531,259.25 c 5.27731,-10.73676 2.26701,-28.77103 -5.98094,-35.83097 -4.87946,-4.17664 -5.24365,-3.70555 -5.53847,7.16422 -0.4852,17.88886 7.29744,37.25641 11.51941,28.66675 z M 453.50802,241.7953 c 16.66786,-9.51616 41.31028,-19.6089 55.74198,-22.83013 10.4366,-2.3295 -5.96858,-7.69548 -20.64711,-6.75347 C 472.36536,213.25376 442,236.04955 442,247.19729 c 0,1.21231 -0.43388,1.41598 11.50802,-5.40199 z M 356.5804,190.75 c 6.43729,-12.82126 29.54663,-38.01115 45.21255,-49.28307 5.50174,-3.9586 8.13612,-6.47179 7.82698,-7.46693 -0.25629,-0.825 -2.07852,-5.73154 -4.0494,-10.90341 -1.97088,-5.17188 -5.41898,-15.97188 -7.66244,-24.000003 -2.24347,-8.028123 -4.27256,-15.214122 -4.50911,-15.968887 -0.2937,-0.93717 -1.93128,0.01886 -5.16453,3.015083 -13.62079,12.62229 -27.12132,19.192507 -43.87436,21.352047 -5.13991,0.66256 -5.13991,0.66256 -1.69155,9.21436 7.63154,18.92587 11.33146,39.2628 11.33146,62.28423 0,16.16107 0.11224,16.67245 2.5804,11.75658 z m -54.82919,-18.87507 c 15.26138,-7.37548 11.97468,-20.38973 -4.66354,-18.46612 -11.22364,1.29761 -17.81837,6.53175 -18.31302,14.53476 -0.44032,7.12391 11.97494,9.2482 22.97656,3.93136 z M 587.70657,107.3223 c 1.42792,-3.72112 -9.45051,-15.230339 -19.40324,-20.528333 -5.15855,-2.745972 -6.32361,-1.843982 -3.76204,2.912564 6.15166,11.422939 21.16165,22.837119 23.16528,17.615769 z M 352.35566,94.414815 C 372.50322,89.216929 396.6218,66 381.87398,66 c -6.83721,0 -33.52171,11.615815 -43.81679,19.073535 -11.29807,8.18428 -2.782,13.747884 14.29847,9.34128 z"
       id="path1"
       sodipodi:nodetypes="ssssssssssssssssssssssssssssssssssssssssssssssssssssssssssssssssssssssssssssssssssssssssssssssssssssssssssssssssssssssssssssssssssssssssssssssssssssssssssssssssssssssssssssssssscsssssssssssssssssssssssssssssssssssssssssssssssssssssssssssssssssscsscssssssssssssssssssssssssssssssssssssssssssssssssssssssssssssssss" />
    <path
       style="fill:#33ab5f;stroke-width:0.877464;fill-opacity:1"
       d="m 451.01628,970.81154 c -27.98813,-1.22552 -66.29978,-6.02367 -91.0222,-11.39961 -33.11429,-7.20075 -53.32056,-17.23293 -53.32056,-26.47305 0,-6.38458 3.30309,-6.49244 18.09555,-0.59092 6.10751,2.43662 13.32015,5.02033 16.02808,5.74158 6.10302,1.62551 16.22073,1.84195 20.47479,0.43798 4.59485,-1.51644 9.10429,-6.91889 10.83988,-12.98653 1.66861,-5.8335 3.06876,-7.70091 7.45103,-9.93757 4.1682,-2.1274 9.10759,-7.71394 10.53972,-11.9206 2.1537,-6.32623 1.45729,-12.86356 -2.09476,-19.66361 -3.04681,-5.83285 -3.1088,-6.12538 -1.4825,-6.99575 0.93349,-0.49959 2.6968,-2.61393 3.91845,-4.69852 5.39577,-9.20719 1.12152,-20.22555 -11.24894,-28.99802 -15.05966,-10.67951 -32.25708,-15.98575 -55.38881,-17.09014 l -11.38508,-0.54355 -0.68188,-3.94859 c -0.5279,-3.05687 -5.56667,-40.07571 -8.95761,-65.80976 -0.53998,-4.098 0.56478,-5.77321 8.0072,-12.1419 7.10929,-6.0836 9.04684,-8.4759 9.04684,-11.17014 0,-2.1257 -2.54181,-4.7668 -4.5876,-4.7668 -2.33545,0 -9.05698,5.08022 -31.39378,23.72782 -31.04224,25.91522 -37.81066,30.64255 -42.23966,29.50185 -1.33652,-0.34422 -5.52379,-5.11453 -11.84971,-13.49968 -15.32348,-20.31161 -23.15504,-29.36853 -39.50806,-45.68971 -8.36148,-8.3452 -15.20269,-15.46502 -15.20269,-15.82181 0,-1.01378 9.40963,-9.86049 16.67181,-15.67445 23.34115,-18.68643 73.68019,-53.9235 90.61218,-63.42805 5.98072,-3.35719 5.1651,-3.68365 16.43838,6.57953 57.19094,52.06659 137.9965,98.2433 188.77358,107.87555 10.07212,1.91065 22.6166,1.74102 31.11005,-0.42066 14.04013,-3.57337 34.90079,-15.60283 52.72096,-30.40194 9.417,-7.82054 27.16091,-25.45694 34.79868,-34.58784 6.75,-8.06957 18.723,-24.62114 23.28181,-32.18494 2.10643,-3.49493 4.29687,-6.35442 4.86763,-6.35442 3.15536,0 82.06633,52.5215 84.27131,56.08922 1.50419,2.43384 -26.12316,61.30764 -35.13607,74.87485 -4.25295,6.402 -5.40124,7.59373 -6.89852,7.1595 -3.03284,-0.87955 -25.50784,-12.32452 -30.60404,-15.58452 -5.61687,-3.59306 -4.93505,-1.35918 -8.47688,-27.77298 -4.22869,-31.53612 -4.86652,-33.66646 -9.93305,-33.17582 -2.7036,0.26182 -2.8065,0.42125 -3.05812,4.738 -0.14321,2.45689 1.13241,17.06666 2.83472,32.46616 5.25647,47.55157 18.92352,189.95248 18.92352,197.16967 0,4.94596 -0.84378,5.83054 -9.47594,9.93422 -20.79285,9.88483 -51.41205,18.46213 -84.35984,23.63157 -21.02082,3.29812 -70.53556,5.15585 -101.39987,3.80438 z"
       id="path7" />
    <path
       style="fill:#33ab5f;fill-opacity:1;stroke-width:0.877464"
       d="M 491.81834,729.90394 C 445.74215,722.64707 379.78423,686.0777 315.44816,632.11817 268.98031,593.14496 241.04468,555.52194 225.48117,510.95285 c -8.07086,-23.11246 -11.32017,-42.859 -11.30649,-68.7112 0.0191,-36.12114 7.3177,-65.9652 24.89244,-101.78578 15.13554,-30.84903 22.45317,-38.97426 52.68952,-58.50448 11.28664,-7.29025 31.99798,-20.02851 32.56468,-20.02851 0.20244,0 0.24139,4.24473 0.0865,9.43273 -0.23149,7.75662 -1e-4,9.97845 1.30226,12.50386 1.75025,3.39391 5.33157,4.55016 7.18317,2.31913 0.58401,-0.7037 2.8153,-8.20407 4.95841,-16.66749 2.1431,-8.4634 5.31895,-19.63943 7.05745,-24.83558 15.57198,-46.54298 42.71759,-82.13343 78.86709,-103.40223 10.96821,-6.45323 23.33921,-12.60282 26.7083,-13.27664 6.10142,-1.22028 10.39948,-11.70861 14.52565,-35.446175 0.79905,-4.596804 1.74124,-8.824528 2.09377,-9.394941 0.48978,-0.792483 2.29406,-0.748527 7.64916,0.18635 3.8545,0.672907 10.11082,1.50462 13.90292,1.848251 l 6.89474,0.624785 -0.50692,4.9143 c -3.02838,29.35845 -2.94014,32.65854 0.98946,37.00226 2.94107,3.25101 17.38802,9.59156 21.85438,9.59156 4.43278,0 7.44544,-3.49911 20.7023,-24.04514 5.88621,-9.12268 11.40827,-17.019854 12.27126,-17.54927 1.32502,-0.812859 2.06424,-0.348427 4.75274,2.986013 4.16184,5.161757 14.01788,14.651847 17.11995,16.484277 1.34388,0.79385 2.44134,1.65438 2.4388,1.91228 -0.003,0.2579 -5.17684,6.78665 -11.49846,14.50833 -12.57954,15.36554 -15.34214,20.01246 -13.99849,23.54654 0.46033,1.21073 3.37844,5.88467 6.48469,10.38652 3.10627,4.50185 7.24126,11.36929 9.18888,15.26097 4.43158,8.85505 9.3226,22.71643 8.64166,24.49092 -0.33657,0.87709 -1.6568,1.33295 -3.83154,1.32299 -1.82492,-0.008 -10.94555,1.05536 -20.26809,2.3638 -13.31653,1.86903 -17.45471,2.1701 -19.3042,1.40452 -1.29477,-0.53598 -6.15223,-2.57793 -10.79435,-4.53768 -40.09712,-16.92771 -79.19452,3.19693 -93.38386,48.06756 -6.00891,19.0018 -7.63034,23.0109 -12.03947,29.76833 -11.31332,17.33877 -31.63711,31.45034 -54.55872,37.88215 -3.78425,1.06186 -14.62295,3.2331 -24.086,4.82498 -19.1785,3.22621 -27.5726,5.72104 -38.85506,11.5482 -16.89416,8.72549 -29.37682,21.37871 -27.42333,27.79801 0.77752,2.55498 2.98613,4.98101 4.53461,4.98101 0.69113,0 4.90511,-3.29522 9.3644,-7.32272 9.54,-8.61624 16.58148,-13.55174 25.28548,-17.72302 9.67222,-4.63528 10.68045,-3.94662 5.49502,3.75332 -5.06131,7.5156 -13.29442,15.69047 -26.84426,26.65433 -19.81421,16.03269 -30.54245,28.56273 -38.55817,45.03399 -6.44742,13.24859 -9.68783,29.25021 -6.73977,33.28193 2.55333,3.49188 4.92918,-0.12911 9.76932,-14.8893 1.2827,-3.91163 2.92551,-7.86022 3.6507,-8.77463 1.18511,-1.49435 1.25606,-0.68597 0.70123,7.98953 -0.89726,14.02999 -0.69529,15.35561 2.3396,15.35561 2.96265,0 4.20382,-3.59509 6.92133,-20.0479 3.9322,-23.80703 7.06004,-29.42125 24.91381,-44.71817 4.43184,-3.79717 9.19672,-7.63979 10.58862,-8.53917 l 2.53072,-1.63523 -0.6231,8.7333 c -1.75649,24.61873 -5.25461,42.02468 -12.78029,63.5921 -2.82249,8.08883 -6.43398,19.78475 -8.02553,25.99092 -2.59025,10.10061 -2.89557,12.57225 -2.91135,23.56846 -0.016,11.15347 0.19845,12.87703 2.32941,18.72033 2.69876,7.40031 7.46905,15.71558 9.71034,16.92651 2.20954,1.19377 5.04542,-0.57771 5.04542,-3.1517 0,-1.15661 -1.17742,-5.29627 -2.61649,-9.19922 -1.44944,-3.93109 -3.06118,-10.70911 -3.61349,-15.19611 -1.08915,-8.84845 -0.55669,-23.16199 0.91643,-24.63511 0.65,-0.65 0.92623,-0.59246 0.92623,0.19293 0,1.92391 9.27243,20.54057 12.20917,24.51288 2.26967,3.07003 3.24339,3.73167 5.16535,3.50986 1.65938,-0.19152 2.45015,-0.8476 2.64145,-2.19153 0.15018,-1.055 -2.08799,-7.57017 -4.97371,-14.47815 -6.26498,-14.99749 -8.10035,-21.6757 -8.12528,-29.56488 -0.0241,-7.61659 0.29322,-8.81546 6.06602,-22.91968 2.66663,-6.51517 5.7088,-14.60977 6.76037,-17.988 l 1.91194,-6.14225 3.08133,4.82605 c 1.69473,2.65433 5.57313,9.72702 8.61866,15.71709 3.04552,5.99007 6.26309,11.61681 7.15014,12.50386 2.10844,2.10844 3.95278,2.04385 5.14301,-0.18013 1.41797,-2.6495 -0.69613,-8.97698 -7.80888,-23.37193 -10.31719,-20.88018 -13.38681,-31.52386 -13.36679,-46.34841 0.0188,-13.91409 3.69104,-24.62921 11.08573,-32.34674 5.58885,-5.83284 9.87866,-7.87508 27.9103,-13.28719 17.98131,-5.39701 25.7085,-8.40744 33.89352,-13.20454 13.84073,-8.11183 29.11156,-22.25161 37.24564,-34.48701 3.99205,-6.00491 5.81768,-9.7139 8.76976,-17.81685 0.81991,-2.25049 2.55497,-5.15602 3.8557,-6.45677 2.57886,-2.57885 17.58675,-11.7201 27.14158,-16.53184 31.27313,-15.74889 75.05683,-27.84441 113.37425,-31.32034 12.96872,-1.17645 36.77916,-0.69896 40.64149,0.81502 l 2.41302,0.94587 v 10.04905 c 0,16.9643 2.30441,28.33544 7.36776,36.3563 1.25638,1.99025 2.28434,3.79248 2.28434,4.00496 0,0.69634 -10.72296,1.49251 -24.13025,1.79166 -15.94559,0.3558 -23.40035,2.26523 -39.48586,10.11376 -29.39515,14.34264 -49.61865,33.93904 -43.95133,42.58847 2.62057,3.99949 4.99731,2.962 15.15793,-6.61664 14.82305,-13.97405 28.4197,-23.45017 42.32397,-29.4975 9.29224,-4.04144 12.91661,-4.45543 17.71484,-2.02349 11.86246,6.0124 29.05622,20.29908 38.69336,32.15118 19.03693,23.41229 32.06681,54.75733 37.1386,89.34162 1.9535,13.32079 2.88122,37.77688 2.03044,53.52528 -3.26435,60.4247 -25.67295,127.50406 -59.79778,179.00257 -12.69071,19.15183 -30.00128,40.45425 -42.86196,52.74603 -19.6784,18.80791 -41.05754,32.70565 -56.49864,36.72755 -4.78769,1.24703 -20.75151,1.70062 -26.72749,0.75941 z M 521.6521,589.16101 c 8.24086,-1.32926 20.4183,-5.61318 28.03005,-9.86073 9.61924,-5.36779 20.77547,-16.63425 24.93564,-25.18203 3.8036,-7.81513 5.32862,-15.23511 4.49786,-21.88429 -1.80389,-14.43782 -6.49511,-16.47604 -26.42722,-11.48195 -16.33467,4.09273 -22.00059,5.12229 -33.76401,6.13529 -19.45507,1.67537 -35.60572,-0.6359 -53.42999,-7.6462 -15.85791,-6.23692 -24.24439,-5.54258 -29.69338,2.45844 -1.85612,2.72543 -2.02488,3.77326 -1.7108,10.62296 0.3039,6.62764 0.76976,8.45174 3.64346,14.26628 10.2432,20.7257 31.39918,36.5573 55.83955,41.78628 8.49696,1.8179 19.73161,2.13238 28.07884,0.78595 z m 79.81565,-94.48891 c 15.35652,-4.66534 26.75689,-22.35636 27.84976,-43.21709 0.55876,-10.66565 -1.17307,-19.13785 -5.85224,-28.62945 -5.89753,-11.963 -15.03351,-19.87157 -26.28573,-22.75426 -14.84334,-3.80268 -28.61936,4.01288 -37.64198,21.35548 -4.67547,8.98687 -6.4678,16.75426 -6.42281,27.83457 0.0636,15.66107 5.20808,28.43221 15.18991,37.70872 10.23518,9.51195 19.85301,11.74567 33.16309,7.70203 z m -167.0283,-1.52905 c 10.65223,-5.17754 20.34339,-17.64878 24.59428,-31.64961 2.5058,-8.25315 2.09031,-23.33404 -0.89683,-32.55185 -4.04155,-12.47152 -12.00871,-22.1851 -22.36993,-27.27341 -4.43815,-2.17955 -5.8555,-2.42164 -14.14572,-2.41609 -8.44668,0.006 -9.61496,0.21666 -14.03942,2.53586 -10.38405,5.44308 -19.75381,18.31403 -23.21669,31.89206 -1.6569,6.4967 -1.87308,20.57039 -0.42131,27.4271 1.38803,6.55566 5.95071,16.1836 10.18783,21.49786 4.12106,5.1687 8.74241,8.53674 15.78859,11.50675 7.21129,3.0396 17.07428,2.64996 24.5192,-0.96867 z M 390.86936,377.96744 c 1.01625,-1.32717 3.13836,-4.18855 4.71578,-6.35863 3.64035,-5.00804 10.47577,-9.79944 17.00197,-11.9178 3.84743,-1.24884 7.30052,-1.6092 14.18344,-1.48012 12.271,0.23011 15.03236,-1.19864 15.03236,-7.77786 0,-3.30318 -3.16811,-6.32565 -8.55409,-8.16084 -18.59997,-6.33764 -49.48552,10.59261 -50.9219,27.9134 -0.73183,8.82489 4.26098,13.37316 8.54244,7.78185 z m 235.90288,-0.39486 c 2.73678,-2.73678 0.29131,-12.22962 -4.82,-18.71026 -3.48307,-4.41618 -12.8679,-10.52683 -19.5618,-12.73707 -15.09484,-4.98413 -32.47784,-0.20253 -32.47784,8.93378 0,6.43611 4.04976,8.52806 13.41151,6.92784 11.50638,-1.9668 23.61197,2.00034 32.90768,10.7842 6.23089,5.8878 8.44538,6.89658 10.54045,4.80151 z"
       id="path8" />
    <path
       style="fill:#33ab5f;fill-opacity:1;stroke-width:0.877464"
       d="m 266.61651,281.69449 c 0.31483,-0.82043 1.96953,-6.09824 3.67712,-11.72848 6.02765,-19.87429 9.16409,-43.41234 9.19196,-68.98288 0.007,-6.78065 0.30353,-12.76879 0.6581,-13.30698 0.37034,-0.56213 4.42033,-1.15625 9.51762,-1.39621 7.51008,-0.35354 9.73393,-0.82287 14.47815,-3.05552 3.08285,-1.4508 7.63749,-4.47495 10.12143,-6.72032 2.48393,-2.24538 4.9365,-4.08251 5.45015,-4.08251 1.18843,0 3.44116,7.49682 4.52294,15.05183 1.49786,10.46086 2.75115,38.69547 2.12999,47.98538 -0.49997,7.47735 -0.93454,9.4391 -2.47075,11.15351 -1.02525,1.14417 -8.97154,6.36741 -17.65843,11.6072 -8.68689,5.2398 -20.40678,12.53163 -26.0442,16.20407 -13.32336,8.67937 -14.31927,9.21282 -13.57408,7.27091 z"
       id="path9" />
    <path
       style="fill:#33ab5f;fill-opacity:1;stroke-width:0.877464"
       d="m 283.85947,173.59942 c -7.31647,-2.94262 -5.10232,-12.45255 3.94985,-16.96486 3.20712,-1.59868 6.16859,-2.27019 11.01776,-2.49828 6.14435,-0.289 6.83754,-0.13872 9.43273,2.04499 1.63038,1.37187 2.80103,3.18688 2.80103,4.3428 0,6.26901 -10.11465,13.01356 -20.07611,13.38697 -3.19499,0.11976 -6.40135,-0.0205 -7.12526,-0.31162 z"
       id="path10" />
    <path
       style="fill:#33ab5f;fill-opacity:1;stroke-width:0.877464"
       d="m 335.41045,94.257051 c -2.59242,-1.50995 -1.84989,-4.806483 1.75493,-7.79109 6.30682,-5.221726 30.69716,-16.691808 40.88375,-19.226461 18.84727,-4.689626 -1.27872,18.049736 -22.51948,25.443645 -7.53275,2.622149 -17.04224,3.366068 -20.1192,1.573906 z"
       id="path11" />
    <path
       style="fill:#33ab5f;fill-opacity:1;stroke-width:0.877464"
       d="m 354.58795,188.03947 c -0.25656,-2.07466 -0.64957,-10.28728 -0.87334,-18.25027 -0.5458,-19.42181 -3.50039,-34.82312 -9.82226,-51.20031 -1.64876,-4.27122 -2.99775,-8.27799 -2.99775,-8.90392 0,-0.72114 2.16982,-1.50492 5.92288,-2.13945 15.20675,-2.57101 28.43883,-9.038677 40.27288,-19.684841 2.48394,-2.234599 4.85309,-4.060517 5.26479,-4.057596 0.41169,0.0029 2.28647,5.432228 4.16617,12.065125 1.8797,6.632892 5.4835,18.054132 8.00844,25.380532 l 4.59081,13.32071 -2.30493,2.11315 c -1.26771,1.16222 -4.87151,4.04153 -8.00844,6.39846 -11.96596,8.99061 -31.96917,30.49899 -40.18138,43.20488 l -3.57141,5.52565 z"
       id="path12" />
    <path
       style="fill:#33ab5f;fill-opacity:1;stroke-width:0.877464"
       d="m 580.39458,105.88354 c -6.95209,-4.42541 -18.2154,-18.154698 -16.39075,-19.979343 0.81234,-0.812343 9.41638,4.501166 14.52498,8.970041 7.36591,6.443522 10.99096,13.492512 6.93873,13.492512 -0.64457,0 -2.9274,-1.11744 -5.07296,-2.48321 z"
       id="path13" />
    <path
       style="fill:#33ab5f;fill-opacity:1;stroke-width:0.877464"
       d="m 641.95215,258.76374 c -3.41411,-4.34034 -5.51243,-13.08836 -6.00087,-25.018 -0.29546,-7.21625 -0.13466,-11.26341 0.46216,-11.63226 1.45156,-0.89711 6.22417,3.68324 8.45629,8.11564 3.94926,7.8422 4.94309,16.8416 2.69562,24.40965 -1.80799,6.08819 -3.24074,7.14107 -5.6132,4.12497 z"
       id="path14" />
    <path
       style="fill:#33ab5f;fill-opacity:1;stroke-width:0.877464"
       d="m 345.72065,927.97313 c -1.93042,-0.33133 -8.48692,-2.81781 -14.57001,-5.52553 -18.29259,-8.14243 -19.90316,-8.2605 -38.0778,-2.79142 -12.16976,3.6621 -24.30467,4.80705 -32.14335,3.03278 -12.29471,-2.78289 -32.54879,-14.97239 -63.50018,-38.2163 -41.27277,-30.99506 -63.90825,-53.95878 -71.78955,-72.83058 -8.14022,-19.49175 -3.22234,-38.45288 16.34424,-63.01599 9.03568,-11.34305 25.86953,-28.66722 27.85586,-28.66722 2.27698,0 5.50463,2.96847 20.44857,18.80657 14.8633,15.75263 26.88381,30.22854 26.88381,32.3753 0,0.77255 -5.08043,5.74555 -11.28984,11.05112 -15.93584,13.61623 -16.68597,15.84944 -8.77017,26.10979 3.98072,5.15975 28.74027,29.55337 41.95123,41.33121 14.07249,12.5459 24.06201,18.07222 29.98203,16.58639 1.20612,-0.30271 8.4038,-4.70969 15.99486,-9.79329 22.40638,-15.00513 27.84296,-17.13204 43.79111,-17.13204 10.92827,0 20.20114,1.67941 29.61241,5.36311 14.66799,5.74127 26.06656,17.58294 21.40862,22.24088 -2.02631,2.02631 -5.30122,1.45198 -14.31245,-2.51003 -10.31546,-4.53544 -20.11629,-6.84994 -30.78768,-7.27063 -10.50019,-0.41394 -13.42984,0.49369 -13.87304,4.29801 -0.38784,3.32909 2.02188,4.51056 13.87304,6.80183 30.20959,5.84064 46.01015,16.33006 44.51952,29.5549 -0.6003,5.32582 -4.12469,9.09248 -8.48832,9.07181 -2.48232,-0.0118 -4.43674,-1.06422 -9.48784,-5.10925 -19.26164,-15.42511 -51.9629,-24.65614 -54.30385,-15.32908 -0.88993,3.54574 0.59153,4.92747 7.64772,7.13289 3.58164,1.11945 9.63836,3.0085 13.45938,4.19789 18.00779,5.60534 32.97729,16.17405 32.97729,23.28249 0,2.72741 -3.13333,5.7844 -7.09277,6.91995 -3.22438,0.92474 -3.07918,0.92414 -8.26284,0.0344 z"
       id="path15" />
    <path
       style="fill:#33ab5f;fill-opacity:1;stroke-width:0.877464"
       d="m 727.21105,781.88303 c -9.25955,-2.45015 -23.98138,-8.65512 -27.2926,-11.50331 l -2.2376,-1.92471 8.44874,-17.44772 c 7.01596,-14.48884 13.61588,-29.56278 20.79762,-47.50086 0.62796,-1.56847 1.26556,-2.85176 1.41689,-2.85176 0.15134,0 1.38673,0.42286 2.74531,0.93968 4.11846,1.56672 11.35412,1.13126 15.63472,-0.94094 11.7451,-5.68571 23.83587,-29.2638 30.59667,-59.66626 4.4323,-19.93147 5.32674,-26.4571 5.35203,-39.04713 0.0246,-12.25039 0.0159,-12.30398 -3.14121,-19.3042 -5.73846,-12.72384 -7.4536,-19.33307 -10.45167,-40.27516 -2.03017,-14.18117 -3.92324,-21.28694 -9.56053,-35.88612 -4.52262,-11.71245 -5.55999,-19.55507 -2.90293,-21.94629 1.59223,-1.43292 2.04823,-1.46603 4.70863,-0.34186 5.75814,2.43315 14.66059,13.52893 20.90758,26.05868 5.64725,11.32682 7.0803,13.07215 14.07019,17.13611 11.91456,6.92722 14.21048,10.29347 21.16644,31.03402 4.31437,12.86414 5.97384,15.88471 8.72686,15.88471 4.90783,0 6.6444,-4.56255 5.19347,-13.64498 -2.10153,-13.15511 -8.84718,-27.49522 -18.07729,-38.42925 -3.67821,-4.35723 -4.37274,-8.58092 -2.57306,-15.64775 3.40325,-13.36355 17.48861,-36.42186 33.44388,-54.749 4.926,-5.65828 11.41234,-9.81508 13.85375,-8.87822 8.27637,3.17594 -0.35236,33.20853 -16.86471,58.69824 -2.96349,4.57467 -5.38817,8.91134 -5.38817,9.63705 0,1.88013 2.86474,4.22385 5.16281,4.22385 1.37723,0 9.12392,-7.05354 26.26058,-23.91088 30.8521,-30.34922 39.11304,-36.67082 42.93122,-32.85264 0.95592,0.95592 1.16552,2.21382 0.74363,4.46272 -1.44391,7.6967 -16.70947,33.04433 -30.44115,50.54588 -12.73903,16.23638 -14.05425,18.76978 -11.42803,22.01301 1.56021,1.92678 1.85009,1.98543 4.03465,0.81629 1.29452,-0.69281 5.86335,-5.42182 10.15295,-10.50891 4.2896,-5.0871 9.68931,-10.85967 11.99937,-12.82793 15.35856,-13.08615 31.72995,-21.28772 35.78135,-17.92536 4.57594,3.7977 -1.27805,13.23045 -37.32619,60.145 -20.97828,27.302 -27.16476,34.29501 -36.89981,41.71046 -3.72253,2.83555 -7.10515,6.17263 -7.65659,7.55352 -0.54332,1.36059 -2.79863,11.16068 -5.01178,21.77799 -12.26804,58.85421 -25.21413,95.52451 -43.24201,122.48466 -6.90923,10.33254 -18.75491,22.29835 -26.74389,27.01511 -9.64643,5.69532 -15.65724,7.36049 -27.81839,7.70645 -9.47512,0.26956 -12.07146,0.0201 -19.07173,-1.83219 z"
       id="path16" />
    <path
       style="fill:#6898aa;fill-opacity:1;stroke-width:0.877464"
       d="m 449.26135,970.37989 c -69.31857,-4.45037 -123.01924,-16.35492 -137.84157,-30.55719 -3.56632,-3.41713 -3.95671,-4.1756 -3.70802,-7.204 0.25187,-3.06713 0.53176,-3.40954 2.98246,-3.64874 1.64982,-0.16104 7.91626,1.63973 16.06895,4.61768 23.99143,8.76341 36.10588,8.45982 42.39475,-1.06238 1.19556,-1.81023 2.67429,-4.87076 3.28608,-6.80118 1.68313,-5.31092 3.12458,-7.13292 8.22359,-10.39472 8.10213,-5.18287 12.18293,-13.75516 10.76608,-22.61565 -0.31086,-1.94401 -1.68564,-6.00564 -3.05507,-9.02585 l -2.48988,-5.4913 2.12188,-2.04222 c 5.27141,-5.07357 6.45291,-13.28684 2.95173,-20.5193 -3.14906,-6.50509 -11.94413,-13.83096 -23.19919,-19.3238 -13.76843,-6.71946 -25.00041,-9.32945 -45.90366,-10.66673 -8.78744,-0.56216 -8.95236,-0.61291 -9.40459,-2.89413 -1.13794,-5.74018 -9.29122,-66.16359 -9.29122,-68.85656 0,-1.16703 3.04372,-4.80382 8.3359,-9.96017 7.23798,-7.05221 8.33591,-8.5072 8.33591,-11.04683 0,-6.37293 -4.53122,-6.71489 -12.40733,-0.93636 -3.06938,2.25193 -14.26757,11.27693 -24.88488,20.05554 -28.57289,23.62466 -35.38864,28.49786 -39.85764,28.49786 -1.9164,0 -5.10736,-3.60844 -18.63933,-21.07793 -10.40908,-13.43788 -16.50924,-20.35166 -34.435,-39.02776 l -13.96026,-14.5446 2.99196,-3.13231 c 11.5196,-12.06001 68.19705,-53.45108 98.90687,-72.23089 7.62257,-4.66138 9.34851,-5.39296 10.9683,-4.64919 1.05725,0.48547 6.07342,4.58548 11.14702,9.11115 57.67547,51.44651 133.87096,95.32059 184.28904,106.11536 7.6043,1.62811 10.84669,1.85566 21.35734,1.49877 11.11403,-0.37737 13.14406,-0.70084 19.68523,-3.13676 13.16979,-4.9044 31.13799,-15.77055 45.71279,-27.6445 3.66379,-2.98486 12.7868,-11.54733 20.27335,-19.0277 13.69543,-13.68416 23.89966,-26.23484 35.79397,-44.0248 3.44378,-5.15074 6.68875,-9.6291 7.21106,-9.9519 1.34705,-0.83252 14.04054,6.94391 43.85265,26.86547 35.90767,23.99485 40.61596,27.5354 39.88244,29.99083 -4.32791,14.48742 -31.15845,68.88366 -37.94585,76.93141 l -2.55797,3.03295 -8.61291,-4.16399 c -16.03199,-7.7508 -25.89518,-13.71475 -26.85454,-16.23808 -0.48802,-1.28359 -2.44302,-13.11605 -4.34442,-26.29435 -1.90141,-13.1783 -4.0356,-25.34505 -4.74263,-27.03721 -1.18614,-2.83884 -1.54156,-3.05551 -4.59809,-2.80301 l -3.31258,0.27365 -0.25947,5.41588 c -0.1427,2.97873 1.71733,24.69595 4.13341,48.26049 5.28317,51.52787 7.94106,78.39462 11.4435,115.67411 6.13401,65.28959 6.24949,67.12183 4.37313,69.38271 -2.82802,3.40756 -23.07222,11.84676 -40.97968,17.0832 -25.0184,7.3158 -51.24384,12.10359 -76.54808,13.97483 -13.06577,0.96621 -68.24262,1.85451 -77.65553,1.2502 z"
       id="path17" />
    <path
       style="fill:#33ab5f;fill-opacity:1;stroke-width:0.877464"
       d="M 483.16254,727.85045 C 445.17728,719.0518 396.11365,693.09624 345.28192,654.90908 320.08534,635.98023 307.24927,624.99573 289.0842,606.81771 263.78733,581.50281 249.87163,562.67185 236.84764,536.13025 220.34292,502.4953 213.43647,470.52717 214.85766,434.34447 c 1.3635,-34.71394 8.51129,-61.11275 26.04177,-96.17967 16.06038,-32.12619 24.23985,-39.81434 75.52547,-70.98878 l 7.35916,-4.47334 0.43873,10.49059 c 0.50307,12.02891 1.64639,14.47769 6.53614,13.99926 2.97832,-0.2914 1.94071,2.50765 10.5058,-28.34077 14.10934,-50.81682 39.66548,-88.62698 76.27668,-112.85083 8.8131,-5.8312 14.98276,-9.13982 34.77131,-18.64688 4.9926,-2.3986 8.9,-12.37228 12.72689,-32.485427 1.18298,-6.217458 2.317,-11.470593 2.52004,-11.673633 0.20304,-0.203039 5.25073,0.270658 11.2171,1.05266 18.22591,2.388843 16.48588,1.839971 16.05015,5.062812 -2.4108,17.831398 -2.73183,32.006058 -0.81612,36.034218 1.57627,3.31444 6.78254,6.75428 14.77715,9.76344 8.53324,3.2119 11.77069,2.98928 15.64115,-1.07556 1.72322,-1.80977 8.3412,-11.08894 14.70662,-20.62039 6.36542,-9.53145 11.95529,-17.329908 12.42195,-17.329908 0.46664,0 4.65231,3.963078 9.30147,8.806838 4.64916,4.84377 9.57527,9.46978 10.9469,10.28002 1.37164,0.81025 2.49295,1.68419 2.49178,1.94209 -0.001,0.2579 -4.58599,6.19436 -10.18852,13.19213 -10.50433,13.12032 -15.23325,20.29312 -15.24758,23.12739 -0.005,0.89624 3.29685,6.81911 7.3364,13.16195 8.73579,13.71684 9.90292,15.96606 14.04614,27.06909 4.17959,11.20045 4.14982,11.87389 -0.55101,12.46425 -2.05107,0.25758 -10.04696,1.26946 -17.76864,2.2486 -7.72168,0.97914 -15.50145,1.77973 -17.28839,1.77908 -1.82323,-6.5e-4 -7.40653,-1.70107 -12.72322,-3.87489 -21.79612,-8.91176 -39.96033,-8.95817 -57.73475,-0.14754 -19.48818,9.66014 -30.7972,24.79136 -40.38681,54.03668 -2.29458,6.99777 -5.28079,14.94236 -6.636,17.65462 -6.57037,13.14966 -21.98044,27.54332 -38.27087,35.74662 -11.70878,5.89615 -19.1235,8.02148 -43.25473,12.39849 -19.83964,3.59858 -26.07817,5.43446 -37.2922,10.97435 -16.22512,8.01544 -29.39503,20.08898 -29.39503,26.94793 0,3.3627 2.39489,6.83941 4.7076,6.83412 1.06611,-0.002 5.31851,-2.95666 9.86834,-6.85574 10.96246,-9.3945 15.59259,-12.68442 23.65317,-16.80663 9.90834,-5.06718 10.87174,-4.81002 6.65965,1.77764 -4.13348,6.46471 -10.20021,12.59553 -25.0485,25.3131 -24.21064,20.73643 -34.55147,33.10937 -41.85524,50.08037 -5.99517,13.93032 -7.91478,28.71776 -4.03459,31.07995 2.29891,1.39954 4.24647,-1.35005 7.54248,-10.64857 1.49869,-4.22803 3.32493,-8.87191 4.05829,-10.31973 1.25481,-2.47724 1.30941,-2.08257 0.92645,6.69675 -0.50862,11.65984 -0.18743,13.04618 3.02255,13.04618 2.09224,0 2.66018,-0.55425 3.82132,-3.72922 0.75011,-2.05107 2.19018,-8.46752 3.20016,-14.25878 3.91898,-22.47169 6.42825,-28.18622 16.97652,-38.6618 7.09604,-7.04714 19.65195,-17.60309 20.17068,-16.95779 0.46998,0.58464 -1.1369,18.32817 -2.57359,28.41822 -1.93553,13.59345 -4.70371,24.7168 -10.80919,43.43445 -8.98625,27.54922 -9.83941,31.30827 -10.38274,45.74695 -0.43653,11.60013 -0.29409,13.46486 1.47283,19.28207 4.476,14.73625 11.23829,23.23834 14.93769,18.78083 1.37366,-1.65516 0.88697,-5.04095 -2.14596,-14.92896 -1.89849,-6.18953 -2.52103,-10.29815 -2.87896,-19.00075 -0.25118,-6.10697 -0.17585,-12.60057 0.16739,-14.43023 l 0.62408,-3.32665 2.41243,5.71813 c 2.65736,6.29867 8.80292,17.59913 11.31336,20.80303 1.16939,1.4924 2.30278,1.9685 4.17775,1.75492 2.32226,-0.26453 2.56355,-0.59238 2.47596,-3.36421 -0.0534,-1.68912 -2.33374,-8.79657 -5.06748,-15.79435 -2.73373,-6.99777 -5.61859,-16.00169 -6.4108,-20.00872 -1.87398,-9.47867 -1.10218,-13.66959 5.73561,-31.14492 2.87082,-7.33696 5.72112,-15.02905 6.334,-17.09353 0.61287,-2.06449 1.51089,-3.62143 1.99559,-3.45986 0.48471,0.16157 3.74987,5.60185 7.25594,12.08952 9.48968,17.55987 10.92177,19.64778 13.69574,19.96762 1.95072,0.22492 2.48832,-0.14723 2.96683,-2.05379 0.83577,-3.32996 -0.69798,-7.78171 -8.14939,-23.65393 -8.24129,-17.55474 -11.36872,-26.82952 -12.54338,-37.19891 -2.20669,-19.47964 3.2289,-35.43284 15.05628,-44.18945 4.50486,-3.33526 7.14122,-4.36805 29.59143,-11.59246 18.20993,-5.85991 27.10636,-10.10643 37.52017,-17.90948 16.11027,-12.0714 28.77696,-27.40401 34.96677,-42.32618 1.72114,-4.14924 4.21258,-8.5819 5.53655,-9.85035 3.36389,-3.2228 19.95925,-13.09438 30.4341,-18.10341 28.425,-13.59269 65.21361,-24.02005 100.73389,-28.55199 11.98635,-1.52931 40.55576,-1.76925 46.96623,-0.39445 l 4.3212,0.92673 0.43819,15.08698 c 0.47258,16.27154 1.93202,23.21048 6.54051,31.09705 1.66683,2.85247 1.90095,3.82357 0.99896,4.14368 -0.64793,0.22995 -9.07524,0.81255 -18.72734,1.29463 -20.28016,1.01294 -25.09679,1.9979 -38.06269,7.78354 -27.34815,12.20329 -50.1224,31.20223 -50.1224,41.81356 0,6.56355 4.56705,7.59896 10.7717,2.44209 2.17749,-1.80977 7.65338,-6.56741 12.16866,-10.57254 10.18144,-9.03112 20.84643,-16.40818 31.07866,-21.49737 14.35354,-7.139 17.73996,-7.37938 26.76081,-1.89949 12.55964,7.62958 26.82948,20.43354 36.13169,32.42004 30.06578,38.74176 42.57361,94.72826 35.2889,157.95725 -7.16233,62.16673 -32.62459,126.81141 -69.27937,175.8894 -27.12913,36.32386 -54.78856,60.57668 -81.67298,71.61391 -5.68514,2.334 -6.9732,2.50837 -20.11354,2.72291 -11.37461,0.1857 -15.43254,-0.0935 -21.37902,-1.47089 z M 527.2856,588.35724 c 9.08682,-2.32402 20.27115,-6.96041 26.05728,-10.80187 6.13975,-4.07623 16.05017,-14.11015 19.81242,-20.05931 4.67513,-7.39269 6.73166,-15.33928 6.19517,-23.9386 -1.01479,-16.26589 -5.69845,-18.14117 -30.66222,-12.27676 -33.68654,7.91352 -53.30189,7.55452 -80.008,-1.46433 -15.67661,-5.2941 -20.83185,-6.05566 -26.45516,-3.90809 -6.2461,2.3854 -8.31935,6.15542 -8.31935,15.12796 0,8.48584 1.7525,13.94872 7.1575,22.31129 9.35297,14.47088 26.0438,27.30981 42.51833,32.70598 13.47791,4.41464 31.6957,5.37494 43.70403,2.30373 z m 71.57142,-92.64151 c 7.28395,-1.71673 11.64666,-4.30673 17.27012,-10.25271 14.75684,-15.60317 17.87501,-43.88833 7.07258,-64.15576 -9.08534,-17.04585 -26.21706,-25.754 -41.64996,-21.17092 -11.44368,3.39841 -22.87989,17.33084 -27.05637,32.9621 -1.99697,7.474 -2.01471,22.90797 -0.0352,30.64106 2.84103,11.09881 8.44786,19.90294 16.75795,26.31413 8.58708,6.62487 16.59551,8.26536 27.64092,5.6621 z m -167.81381,-0.83921 c 9.17006,-2.72322 18.86238,-12.32501 24.78756,-24.55604 5.08798,-10.50284 6.42906,-20.89275 4.35036,-33.70407 -2.49946,-15.40466 -10.43079,-27.44344 -22.76553,-34.55527 -4.43489,-2.55702 -5.58258,-2.80924 -14.15969,-3.11192 -8.66982,-0.30595 -9.71596,-0.1578 -14.70923,2.08305 -9.87115,4.4299 -20.35581,18.02396 -24.22011,31.40298 -2.29416,7.94286 -2.0715,25.6461 0.41579,33.05918 2.20166,6.56179 6.79311,15.0008 10.31875,18.96571 8.91,10.0201 23.29441,14.18421 35.9821,10.41638 z M 393.9528,374.58039 c 4.72581,-6.43622 9.04074,-9.97727 16.26142,-13.34491 4.10769,-1.91578 6.32809,-2.29727 14.91689,-2.56295 5.54995,-0.17167 10.95164,-0.49138 12.00376,-0.71045 3.17113,-0.66029 4.66804,-2.86855 4.66804,-6.88637 0,-6.64672 -6.05039,-10.18111 -17.42866,-10.18111 -12.80886,0 -26.08662,5.78137 -35.05412,15.26317 -5.5426,5.86049 -7.18474,9.44049 -7.18474,15.66337 0,5.66112 1.7422,8.55932 5.14531,8.55932 1.95996,0 3.21353,-1.08973 6.6721,-5.80007 z m 233.811,2.01298 c 1.08072,-2.84252 -0.37977,-9.79238 -2.99597,-14.25659 -4.63311,-7.90581 -17.33448,-16.05828 -28.09259,-18.03145 -9.36401,-1.71748 -20.22578,0.58197 -24.91924,5.27543 -3.36957,3.36957 -2.04485,11.89507 1.94849,12.53998 0.56878,0.0919 6.16732,0.19057 12.44118,0.21936 11.23072,0.0516 11.50874,0.10097 17.98801,3.19743 3.61953,1.72979 9.14465,5.38223 12.27803,8.11654 6.41301,5.59624 9.98982,6.52235 11.35209,2.9393 z"
       id="path18" />
    <path
       style="fill:#33ab5f;fill-opacity:1;stroke-width:0.877464"
       d="m 727.85604,781.54337 c -11.61244,-3.24646 -26.69196,-9.93045 -28.35625,-12.56889 -0.58517,-0.92769 1.41492,-5.98223 7.08899,-17.91489 7.25109,-15.24918 19.27425,-42.784 20.77604,-47.58022 0.56028,-1.78935 0.96803,-1.92877 3.84943,-1.3162 4.25646,0.90492 10.86507,0.61143 14.69514,-0.6526 4.14521,-1.36805 10.91564,-8.30682 15.29036,-15.67057 11.42262,-19.22713 20.83601,-54.30673 21.6899,-80.82886 0.34587,-10.74289 0.16258,-14.33819 -0.87234,-17.11054 -0.72062,-1.93042 -2.93863,-7.73775 -4.9289,-12.90518 -2.89442,-7.51491 -4.31119,-13.40853 -7.07877,-29.44697 -3.37215,-19.542 -4.36098,-23.36173 -10.91671,-42.17022 -3.39733,-9.74699 -4.10392,-16.70226 -1.88397,-18.54466 4.16599,-3.45745 15.24022,8.1516 24.65933,25.85023 6.0872,11.43794 6.95058,12.46287 14.78576,17.5525 11.26678,7.31874 13.08556,9.97235 19.84442,28.95307 5.57313,15.65089 6.42471,17.11054 9.98262,17.11054 3.83522,0 5.13321,-1.70642 5.60251,-7.36544 0.83345,-10.05039 -6.51061,-29.2592 -16.01896,-41.89849 -5.50696,-7.32031 -6.42913,-10.53837 -4.9883,-17.40756 3.78801,-18.05943 33.9153,-61.05519 44.68142,-63.76648 3.81705,-0.96127 4.83699,1.09981 4.39449,8.88037 -0.67781,11.9185 -6.94308,27.87595 -18.60904,47.39667 -6.0549,10.13172 -6.85188,12.96939 -4.06191,14.46254 4.27527,2.28805 5.24861,1.52977 34.28386,-26.70921 23.66272,-23.01379 32.10149,-29.83948 36.17622,-29.26109 7.29464,1.03543 -4.91827,24.34843 -30.48635,58.19483 -9.2082,12.18959 -10.78598,15.30688 -9.34646,18.46627 1.90766,4.18686 4.60914,2.87399 13.17152,-6.40115 4.34382,-4.70539 8.73779,-9.63097 9.76441,-10.94573 3.12022,-3.99598 19.327,-15.6609 26.78241,-19.2768 8.55236,-4.14792 12.99666,-4.33167 13.43317,-0.55537 0.50305,4.35205 -5.09286,13.31132 -24.29323,38.89444 -28.0373,37.3577 -36.51984,47.34879 -52.89327,62.29992 l -5.76563,5.26478 -4.1298,19.3042 c -13.77402,64.38476 -27.5712,102.59826 -46.41306,128.54841 -5.26422,7.25019 -17.87396,19.38327 -23.99981,23.09258 -9.37896,5.67913 -14.08986,6.90832 -27.92124,7.28539 -9.94538,0.27112 -13.3705,0.0313 -17.988,-1.25962 z"
       id="path19" />
    <path
       style="fill:#33ab5f;fill-opacity:1;stroke-width:0.877464"
       d="m 336.06855,923.87616 c -18.22551,-7.60108 -21.31499,-8.49582 -27.62958,-8.00174 -3.14271,0.2459 -10.25491,1.76893 -15.80487,3.38452 -9.22252,2.68466 -11.11026,2.93818 -21.93795,2.94635 l -11.84714,0.009 -10.96692,-5.40996 c -13.17463,-6.49902 -27.9059,-16.18644 -50.38558,-33.13403 -23.41113,-17.64982 -32.4502,-25.31388 -46.58271,-39.49662 -16.27645,-16.33431 -23.90524,-27.59683 -27.28097,-40.27542 -3.64419,-13.68686 1.07446,-30.48068 13.3984,-47.68534 10.10014,-14.10015 30.13113,-35.36289 33.34012,-35.39027 2.62555,-0.0224 31.35036,30.2037 43.21274,45.47124 2.2335,2.87463 2.75114,4.17313 2.16493,5.43065 -0.42375,0.90898 -5.24559,5.67006 -10.71523,10.58018 -10.46528,9.39474 -13.29932,12.95689 -13.30472,16.72286 -0.007,4.87666 8.75563,14.93434 32.59522,37.41262 24.38965,22.99693 34.32073,30.02686 42.44633,30.04658 3.00108,0.007 5.68028,-1.37882 17.83647,-9.22792 15.54084,-10.03452 23.95163,-14.59109 29.87935,-16.18726 6.43912,-1.73387 24.1579,-1.29169 33.08314,0.82561 10.75953,2.55244 21.09323,7.72047 27.03307,13.51963 5.09305,4.97239 6.69982,8.47156 4.89089,10.65118 -1.67936,2.0235 -4.51366,1.58622 -13.86418,-2.13901 -12.81313,-5.10474 -17.8614,-6.24338 -30.22938,-6.81827 -9.99643,-0.46466 -11.38535,-0.3511 -12.94259,1.0582 -2.33591,2.11397 -2.21828,5.3431 0.25364,6.96277 1.09894,0.72005 7.5154,2.54791 14.25878,4.06188 17.50114,3.92923 27.06701,7.73932 34.43751,13.71648 7.24378,5.8744 9.46114,15.00616 4.94656,20.37143 -3.62528,4.3084 -6.90606,3.78272 -15.5683,-2.4945 -14.29385,-10.35823 -30.77789,-17.31765 -43.25324,-18.26116 -7.76242,-0.58707 -10.85882,0.84684 -10.85882,5.02864 0,3.51546 1.63897,4.43461 16.35826,9.17381 16.34642,5.2631 25.64278,9.97781 32.14824,16.30418 4.53129,4.40654 5.11306,5.35669 4.86351,7.943 -0.21185,2.1956 -1.03666,3.44356 -3.26498,4.94004 -4.67766,3.14138 -9.40394,2.67599 -20.71,-2.03928 z"
       id="path20" />
    <path
       style="fill:#33ab5f;fill-opacity:1;stroke-width:0.877464"
       d="m 267.18766,281.71272 c 0,-0.21728 0.97204,-3.47559 2.16008,-7.24069 6.35677,-20.14558 8.93677,-36.524 10.20102,-64.75823 0.51864,-11.58252 1.21082,-21.33921 1.53819,-21.68154 0.32737,-0.34232 4.63471,-1.00249 9.57187,-1.46704 10.5528,-0.99293 15.7323,-3.05048 23.39931,-9.29535 4.59943,-3.74628 5.29779,-4.05885 6.22758,-2.78727 2.99158,4.09123 5.68655,29.00278 5.6624,52.34174 -0.0141,13.67712 -0.81578,18.15197 -3.64685,20.35745 -1.11488,0.86853 -12.09595,7.88455 -24.40237,15.59118 -12.30643,7.70662 -24.2509,15.20966 -26.54328,16.67342 -2.29237,1.46376 -4.16795,2.48361 -4.16795,2.26633 z"
       id="path21" />
    <path
       style="fill:#33ab5f;fill-opacity:1;stroke-width:0.877464"
       d="m 354.58734,178.7832 c -1.3339,-28.51276 -2.87019,-38.09374 -9.08557,-56.66175 -3.23007,-9.64963 -3.82129,-12.27833 -2.89085,-12.85337 0.64332,-0.39759 3.58047,-1.19364 6.52701,-1.76899 13.00559,-2.53952 24.31828,-7.988007 35.75242,-17.219294 3.81808,-3.082508 7.11235,-5.60456 7.3206,-5.60456 0.20825,0 1.60345,4.0473 3.10045,8.994001 1.49699,4.946701 5.05616,16.059073 7.90927,24.694153 2.85311,8.63509 4.97698,16.04074 4.71971,16.457 -0.25726,0.41627 -4.09562,3.66176 -8.52969,7.21221 -13.62832,10.91248 -31.48599,29.86343 -40.45457,42.93128 -1.88998,2.75384 -3.52837,5.00699 -3.64086,5.00699 -0.11249,0 -0.44006,-5.03445 -0.72792,-11.18767 z"
       id="path22" />
    <path
       style="fill:#33ab5f;fill-opacity:1;stroke-width:0.877464"
       d="m 337.82348,94.362529 c -2.04398,-0.374459 -2.69275,-1.003072 -2.90243,-2.812232 -0.21801,-1.881062 0.49774,-2.916219 3.71494,-5.372729 8.3908,-6.406852 37.30822,-19.051604 43.56931,-19.051604 7.5632,0 -2.56715,12.100186 -17.41892,20.806003 -8.00735,4.693758 -20.36095,7.640049 -26.9629,6.430562 z"
       id="path23" />
    <path
       style="fill:#33ab5f;fill-opacity:1;stroke-width:0.877464"
       d="m 282.32391,171.9997 c -2.54032,-1.84325 -2.64286,-6.70419 -0.21338,-10.11608 0.9685,-1.36013 3.81004,-3.4941 6.31453,-4.74214 3.7012,-1.84438 5.80679,-2.26916 11.24808,-2.26916 5.86312,0 6.9314,0.2522 8.60235,2.03085 3.85303,4.10136 1.53759,9.14344 -6.11046,13.30602 -5.84236,3.17981 -16.58977,4.14968 -19.84112,1.79051 z"
       id="path24" />
    <path
       style="fill:#33ab5f;fill-opacity:1;stroke-width:0.877464"
       d="m 579.5647,104.5008 c -6.29495,-4.694966 -14.91689,-14.713681 -14.91689,-17.333454 0,-1.220122 6.10452,2.289205 11.63518,6.688759 11.21983,8.925195 14.2785,18.846455 3.28171,10.644695 z"
       id="path25" />
    <path
       style="fill:#33ab5f;fill-opacity:1;stroke-width:0.877464"
       d="m 642.04827,257.79129 c -3.18336,-4.4746 -4.73134,-11.5407 -5.21866,-23.82171 -0.46376,-11.68712 -0.45989,-11.71745 1.37183,-10.73715 7.26441,3.8878 11.73622,19.71586 8.83046,31.25565 -1.36727,5.42994 -2.79662,6.37733 -4.98363,3.30321 z"
       id="path26" />
    <path
       style="fill:#1f5c35;fill-opacity:1;stroke-width:0.877464"
       d="m 462.42331,982.18632 c -28.59998,-1.03725 -68.19401,-5.87726 -99.59212,-12.17402 -36.02258,-7.22416 -53.00342,-13.56427 -60.20382,-22.47825 -2.13292,-2.64046 -4.44543,-6.91564 -5.57191,-10.30063 -1.05913,-3.18274 -2.24099,-5.98158 -2.62635,-6.21982 -0.38535,-0.23814 -4.40189,0.37995 -8.92563,1.37359 -10.98329,2.41249 -19.79675,2.39696 -27.09046,-0.0479 -29.08553,-9.74922 -76.31473,-42.66799 -113.9486,-79.42217 -24.70139,-24.12399 -33.00104,-39.1697 -32.92674,-59.69003 0.0309,-8.51862 0.36782,-10.63102 2.86944,-17.98801 5.62078,-16.53006 15.22485,-30.56791 34.81729,-50.89097 10.17772,-10.55726 12.75654,-13.74527 13.57382,-16.78044 3.01978,-11.21459 60.02426,-56.55088 106.36415,-84.59257 4.70564,-2.84753 8.78147,-5.88864 9.0574,-6.75802 0.6046,-1.90492 -0.24508,-3.04453 -11.36041,-15.23667 -35.6332,-39.08524 -56.79691,-85.83834 -62.05386,-137.08424 -1.31891,-12.85696 -0.54201,-45.84663 1.35598,-57.57982 5.18416,-32.04793 15.6385,-60.94001 32.1905,-88.96315 12.13879,-20.55141 20.53961,-42.2598 25.29191,-65.35636 4.22394,-20.52863 4.73979,-26.91018 4.80113,-59.39357 l 0.0588,-31.14996 2.19365,-4.38086 c 4.16575,-8.31922 14.24319,-13.56347 27.44504,-14.28225 7.28955,-0.39688 8.00384,-0.2708 13.33513,2.35378 6.63933,3.26854 11.22616,8.12891 15.6925,16.62837 5.66373,10.7781 8.45765,24.81107 9.85071,49.47702 0.293,5.188 0.87857,9.43273 1.30125,9.43273 0.99318,0 3.13198,-7.53546 4.35842,-15.35561 1.39332,-8.88433 1.13426,-32.55959 -0.48488,-44.31191 -2.92089,-21.20097 -7.30467,-36.80804 -15.15761,-53.96401 -3.36817,-7.358286 -4.01691,-9.637508 -4.01914,-14.120321 -0.006,-13.035218 11.0533,-22.233288 39.49949,-32.850521 19.08153,-7.121976 26.63581,-7.400383 31.77068,-1.170885 3.40461,4.130376 5.49543,9.765548 10.69957,28.837525 5.43055,19.901652 11.87358,40.781352 12.90142,41.809202 0.46317,0.46317 5.98697,-1.51689 13.4463,-4.81996 6.9631,-3.08334 13.55914,-5.88592 14.65785,-6.22796 1.09872,-0.34204 2.55385,-1.48037 3.23362,-2.52963 1.57312,-2.42819 4.35871,-16.375947 6.57092,-32.901233 2.45046,-18.305071 3.88383,-21.858908 9.76558,-24.212315 4.57939,-1.832311 10.84846,-1.739987 20.76193,0.305757 13.74937,2.837319 18.85006,7.02254 20.02563,16.431405 0.59378,4.752503 0.0322,11.392135 -2.68317,31.724896 -1.69484,12.69089 -1.39669,13.83848 4.2824,16.48282 8.53352,3.97344 9.25166,3.41731 22.9382,-17.76323 18.30265,-28.324191 22.28182,-32.777901 29.28549,-32.777901 1.44864,0 6.60991,2.02666 11.46947,4.503689 22.703,11.572199 31.79241,29.180192 20.39292,39.505142 -14.073,12.74645 -30.89927,31.7194 -30.89927,34.84136 0,0.83514 1.81893,4.46171 4.04206,8.05905 5.79791,9.38185 11.90599,21.85792 15.66033,31.98707 1.78876,4.82605 3.9971,9.54012 4.90742,10.4757 1.35457,1.39217 3.53269,1.83309 11.9948,2.42811 28.49508,2.00364 35.31211,3.18419 44.66833,7.7355 13.27667,6.4584 18.52837,19.34374 16.08093,39.4554 -2.52493,20.74843 -8.88692,26.7641 -29.35044,27.75274 -11.65744,0.5632 -14.47815,1.04987 -14.47815,2.49802 0,0.66186 3.25758,3.47613 7.23907,6.25391 9.15131,6.38463 24.14629,21.37065 31.09016,31.07158 18.9805,26.51666 30.67391,60.55466 34.59919,100.7138 1.30615,13.36299 0.49524,51.58832 -1.38158,65.12681 -6.1939,44.67965 -17.61603,80.95589 -38.89881,123.54111 -6.76229,13.53084 -8.27385,17.22988 -7.52976,18.42674 0.51203,0.82359 5.62986,4.3954 11.37296,7.93736 14.90391,9.19172 40.73546,26.46593 56.08118,37.50289 28.12654,20.22922 29.50591,20.95218 35.00091,18.34463 13.36338,-6.34134 30.61556,-55.61623 30.71749,-87.73388 l 0.0362,-11.40702 -3.75562,-8.56887 c -4.71577,-10.75954 -7.25048,-20.71056 -10.23008,-40.16237 -1.29099,-8.42799 -3.25995,-17.89018 -4.37547,-21.02712 -1.11552,-3.13693 -3.24437,-9.09216 -4.73078,-13.23385 -7.45987,-20.78602 -3.96155,-36.21854 8.2032,-36.1876 9.76037,0.0248 20.59464,10.29171 31.08718,29.45916 3.98816,7.28544 5.8665,8.39092 8.20007,4.82605 0.71081,-1.08586 4.15827,-7.30489 7.66105,-13.82006 14.40608,-26.7954 26.0216,-43.78671 36.49201,-53.38095 11.52444,-10.56005 22.64062,-10.79857 27.58163,-0.59183 1.75744,3.63038 1.93902,5.05172 1.5523,12.15087 -0.35077,6.43941 -1.08559,9.75823 -3.69192,16.67454 -1.7897,4.74923 -3.04575,8.84322 -2.79122,9.09774 0.25452,0.25453 4.53023,-3.3196 9.50158,-7.9425 11.09765,-10.31982 13.53781,-12.16705 21.31868,-16.13853 4.83535,-2.46804 7.47335,-3.22284 12.39823,-3.54743 6.17643,-0.40707 6.29916,-0.37271 9.6521,2.70212 3.36487,3.08577 3.39561,3.17355 3.34056,9.54134 -0.0626,7.24478 -2.14449,12.78317 -8.44513,22.46678 -1.97189,3.03066 -3.36131,5.73424 -3.0876,6.00797 0.27373,0.27372 3.1643,-0.8151 6.4235,-2.4196 10.9723,-5.40164 21.44015,-4.22878 25.18199,2.82151 1.85423,3.4937 1.54342,10.62294 -0.69688,15.98474 -3.5314,8.45182 -13.76256,22.85136 -42.42787,59.7138 -21.41846,27.54329 -28.3382,34.80533 -39.34507,41.29136 -0.084,0.0495 -2.39857,10.55084 -5.14352,23.33632 -10.10166,47.0518 -20.3535,79.18998 -33.74719,105.79302 -7.39641,14.69103 -14.45605,25.15796 -23.20215,34.40051 -15.26359,16.12997 -30.0353,23.02657 -49.24837,22.993 -13.80818,-0.0241 -24.93536,-2.89832 -42.50093,-10.97816 -13.82588,-6.35965 -13.17472,-6.26212 -17.52788,-2.62516 -2.04126,1.70542 -4.68599,3.34538 -5.87718,3.64435 -5.61539,1.40937 -15.11676,-1.99697 -31.12903,-11.16009 -4.32738,-2.47637 -8.12402,-4.24644 -8.43697,-3.93348 -0.31296,0.31296 2.12919,28.48946 5.427,62.61445 11.02949,114.13071 10.62779,107.66653 6.94848,111.81456 -4.36401,4.92003 -18.03267,11.53873 -37.61016,18.21193 -43.82512,14.93821 -98.38499,22.07023 -153.53547,20.06988 z m 60.98372,-11.30928 c 38.00855,-2.13733 84.74065,-12.93417 112.28225,-25.94133 10.90993,-5.15247 11.44011,-5.68062 11.44011,-11.39554 0,-7.78804 -14.33091,-156.91469 -19.37153,-201.57911 -1.46084,-12.9443 -2.53688,-25.38234 -2.3912,-27.6401 0.23807,-3.6896 0.49637,-4.13189 2.55232,-4.37055 3.67565,-0.42668 4.64914,3.04566 8.19251,29.22183 4.04365,29.87204 3.63756,28.26487 7.81406,30.92497 4.66856,2.97349 29.32376,15.64247 32.00365,16.44495 1.40189,0.41979 2.59576,0.10649 3.82837,-1.00463 2.77577,-2.50221 13.37275,-20.91642 19.99767,-34.74966 7.42392,-15.5016 20.20363,-45.05012 20.20363,-46.7137 0,-1.61872 -14.06279,-11.75916 -44.3253,-31.96221 -28.92609,-19.31087 -41.48208,-26.96217 -42.44485,-25.86479 -0.38188,0.43526 -4.46943,6.51684 -9.08346,13.51461 -10.958,16.61927 -21.27548,29.33075 -34.83949,42.92345 -23.96288,24.01355 -50.57163,41.75272 -71.10589,47.40393 -20.55297,5.65637 -51.09284,-1.72847 -94.34497,-22.81353 -41.8422,-20.39774 -85.07549,-49.66072 -122.46923,-82.89482 -10.96089,-9.74161 -12.73534,-11.0043 -14.75346,-10.49858 -3.00501,0.75304 -9.65686,4.77718 -27.30173,16.51661 -43.44996,28.90801 -85.11397,60.96439 -85.11397,65.48688 0,0.80665 5.95333,7.36326 13.22963,14.57024 15.04162,14.89832 26.84844,28.39641 40.07311,45.81337 11.42489,15.04665 12.31025,15.98945 15.01534,15.98945 5.42559,0 11.90171,-4.62861 43.98072,-31.43393 12.31553,-10.29089 23.84974,-19.46772 25.63159,-20.39296 3.80591,-1.97625 5.77249,-1.48915 6.55366,1.62329 0.49985,1.99155 -0.46063,3.22036 -8.34348,10.67458 -4.89959,4.63317 -8.90835,8.86916 -8.90835,9.41331 0,1.43009 4.90206,38.37841 7.54624,56.87835 1.24161,8.68689 2.66657,16.28792 3.16657,16.89118 0.59134,0.71345 3.40985,1.09683 8.06375,1.09683 41.9116,0 80.03536,23.90285 69.8783,43.81233 -0.94814,1.85851 -2.80288,4.16509 -4.12164,5.12575 l -2.39775,1.74664 3.38583,6.67061 c 2.81996,5.55577 3.37775,7.52819 3.33749,11.80188 -0.077,8.17477 -4.07767,14.17872 -13.21947,19.83899 -2.07412,1.28422 -3.91229,2.81166 -4.0848,3.39431 -3.62781,12.25263 -5.13521,14.6611 -10.93245,17.46749 -2.94265,1.42456 -5.4661,1.90208 -9.706,1.8367 -7.1914,-0.11082 -12.38757,-1.48949 -26.97761,-7.15773 -16.23558,-6.30751 -19.55114,-5.96587 -19.55114,2.01466 0,8.34485 16.13225,17.43441 42.8309,24.13261 21.51222,5.39702 50.7677,10.01274 77.82034,12.27791 6.27387,0.52534 12.78903,1.08639 14.47815,1.24679 7.66641,0.72812 67.89539,0.47892 82.48158,-0.34133 z M 358.00032,927.14698 c 5.69086,-3.2826 5.10298,-8.9849 -1.59555,-15.4767 -7.21523,-6.99256 -22.97149,-14.28212 -39.64042,-18.33949 -7.68874,-1.8715 -9.61163,-3.19265 -8.8814,-6.10208 1.18401,-4.71751 10.42093,-4.8152 23.82119,-0.25192 10.91792,3.71794 20.59502,9.1441 32.35433,18.14175 4.85457,3.71447 10.00533,3.68221 13.17313,-0.0825 2.8116,-3.34141 3.49341,-5.92013 2.91712,-11.03304 -1.31673,-11.682 -16.61022,-21.08642 -42.6289,-26.21377 -13.84946,-2.72923 -16.10368,-3.58825 -15.75471,-6.00363 0.92618,-6.41038 22.76674,-5.02308 40.89092,2.59736 4.19848,1.76528 9.49406,3.62988 11.76796,4.14355 3.60147,0.81356 4.36489,0.72532 5.92287,-0.68464 2.43671,-2.20519 2.24728,-4.66697 -0.71902,-9.34435 -7.34555,-11.58272 -28.68295,-20.04346 -50.61401,-20.06956 -16.43575,-0.0196 -23.00559,2.50377 -44.83176,17.21888 -7.47002,5.03626 -14.7519,9.39085 -16.18197,9.67686 -6.33028,1.26605 -16.68685,-5.65614 -37.22718,-24.88214 -19.05364,-17.83446 -34.13467,-33.53183 -36.30796,-37.79182 -2.88594,-5.65692 -1.5217,-7.89276 11.6844,-19.1493 6.46655,-5.51191 11.2786,-10.29091 11.58289,-11.50335 0.3584,-1.42796 -0.19255,-3.09123 -1.76848,-5.33895 -4.80011,-6.84633 -15.08131,-18.49755 -28.91676,-32.77011 -12.41425,-12.80646 -14.71602,-14.80664 -17.03913,-14.80664 -2.27887,0 -4.11368,1.49609 -12.10636,9.87146 -15.18183,15.90873 -24.78916,28.43463 -30.45495,39.70668 -17.93665,35.68494 -0.66172,64.41498 70.8602,117.84806 29.91684,22.35046 48.2354,33.41892 60.50998,36.56138 7.00182,1.79256 19.61909,1.64106 26.79765,-0.32179 3.13693,-0.85773 9.78593,-2.68599 14.77554,-4.06277 11.21407,-3.09432 13.68179,-2.72468 29.83455,4.46891 15.18953,6.76461 21.41915,7.66029 27.77583,3.99364 z m -87.20589,-73.22719 c 1.63581,-1.12525 6.10039,-4.30172 9.92128,-7.05881 3.82088,-2.75709 9.54633,-6.44089 12.72322,-8.18623 8.32059,-4.57122 8.84755,-5.15667 8.84549,-9.82703 -0.001,-3.22848 -3.39611,-29.51636 -8.41115,-65.13459 -0.94387,-6.70366 -1.38701,-6.8244 -7.08785,-1.93127 -13.76658,11.81612 -43.50723,34.51634 -45.2215,34.51634 -2.2016,0 -6.90683,-4.12438 -11.4395,-10.02732 -2.43557,-3.17186 -5.10319,-5.76702 -5.92806,-5.76702 -0.82486,0 -4.65737,2.7331 -8.51669,6.07356 -6.41957,5.55652 -9.94479,10.31725 -9.89519,13.36325 0.0498,3.05772 3.89547,9.06394 9.76881,15.25699 7.08787,7.47371 39.73063,35.93356 44.61466,38.89765 3.97093,2.40994 6.93924,2.36091 10.62648,-0.17552 z m 492.16015,-71.57883 c 16.84327,-5.7757 32.16646,-20.27988 45.09653,-42.68618 13.99564,-24.25281 26.66419,-62.94771 37.01335,-113.05375 2.1825,-10.56668 4.54256,-20.32289 5.24459,-21.68047 0.70203,-1.35758 4.34529,-4.80445 8.09612,-7.65971 3.75083,-2.85527 8.98112,-7.53393 11.62286,-10.39702 9.91708,-10.74803 53.1427,-67.81481 59.18395,-78.1351 7.91815,-13.52659 3.651,-18.59217 -10.53817,-12.50997 -11.61624,4.97929 -24.74349,15.96182 -41.37943,34.61886 -5.3168,5.96273 -5.47173,6.05999 -7.18444,4.51 -2.54974,-2.30747 -1.64892,-3.99506 11.27426,-21.12156 16.82824,-22.30164 28.94818,-42.48252 30.29261,-50.44008 0.73356,-4.34192 -0.64196,-7.06619 -3.56783,-7.06619 -5.84419,0 -14.28463,6.96208 -44.3789,36.60578 -11.89687,11.71875 -22.20071,21.30682 -22.89742,21.30682 -0.69671,0 -1.95171,-0.75687 -2.78888,-1.68193 -1.77882,-1.96559 -1.78113,-1.95996 5.176,-12.67279 10.28647,-15.83945 17.8847,-35.05674 18.59265,-47.02408 0.45989,-7.77406 -0.71217,-10.86901 -4.27321,-11.28398 -6.1792,-0.72004 -15.46178,8.64885 -30.7183,31.0039 -11.35089,16.63222 -16.57373,27.59078 -17.7897,37.32635 -0.73969,5.9223 0.41787,9.08797 5.59489,15.30083 4.05242,4.86324 11.397,18.65181 13.55425,25.44644 0.76611,2.41302 1.83338,6.99309 2.3717,10.17793 0.81306,4.81022 0.75216,6.33296 -0.3597,8.994 -1.3061,3.12595 -3.23027,4.016 -5.47353,2.53186 -1.63699,-1.08305 -3.52313,-5.48228 -6.48378,-15.12281 -3.69023,-12.01625 -7.31074,-19.91803 -10.79211,-23.55384 -1.54486,-1.61339 -5.86512,-4.70587 -9.60058,-6.87218 -7.48819,-4.34263 -8.59435,-5.59989 -13.37504,-15.20209 -7.04491,-14.14992 -16.98623,-26.7349 -22.89278,-28.98058 -3.11006,-1.18243 -3.64026,-1.09766 -5.63966,0.90175 -3.34057,3.34056 -2.13779,11.05508 4.28469,27.4817 4.60793,11.78555 5.66958,16.10697 8.44604,34.37948 2.73004,17.96705 4.59531,25.17768 9.39111,36.30349 3.24173,7.52056 3.68275,9.37668 4.02039,16.92111 0.27102,6.05544 -0.16835,11.89759 -1.53943,20.46969 -5.41504,33.85533 -15.13871,61.13737 -26.11197,73.26321 -7.577,8.37285 -12.8105,10.37174 -21.42885,8.18458 -2.8867,-0.7326 -5.37737,-1.1917 -5.53483,-1.02024 -0.15746,0.17146 -2.91256,6.76898 -6.12246,14.66115 -3.2099,7.89217 -9.8212,22.69937 -14.69178,32.90488 -4.87058,10.20552 -8.90254,19.54263 -8.95992,20.74915 -0.0883,1.8564 0.83998,2.69661 6.03792,5.46517 8.21991,4.37813 17.99272,8.13979 25.46011,9.79987 9.07782,2.01808 26.24403,1.43681 33.76868,-1.14345 z M 517.43101,730.37081 c 33.23237,-7.12707 81.86413,-54.00829 113.20136,-109.12659 24.04097,-42.28508 41.74572,-97.08249 46.7436,-144.67467 1.74231,-16.59104 1.75353,-47.49334 0.0226,-62.29045 -6.80395,-58.16523 -31.88675,-102.24487 -72.09108,-126.69041 -4.57351,-2.78084 -8.59375,-4.60668 -10.14328,-4.60668 -3.7425,0 -15.04506,3.99694 -21.68678,7.66913 -13.13815,7.26406 -23.9322,15.452 -36.46974,27.6645 -7.58003,7.38351 -9.51964,8.04634 -11.77072,4.02242 -1.1748,-2.10001 -1.1366,-2.69072 0.3972,-6.14224 5.44126,-12.24459 35.15624,-32.49932 59.9512,-40.86476 9.15277,-3.08802 9.69065,-3.16099 27.56673,-3.74045 11.0389,-0.35782 18.60403,-0.96321 19.17531,-1.53449 0.67304,-0.67305 0.0566,-2.53999 -2.15027,-6.51267 -4.65607,-8.38145 -5.90276,-14.21162 -6.47524,-30.28149 -0.27789,-7.80053 -0.78977,-14.64314 -1.13752,-15.20579 -1.84983,-2.9931 -34.54293,-3.27821 -55.72293,-0.48595 -44.57847,5.87699 -89.17798,21.1065 -121.5287,41.49874 -7.09478,4.47219 -9.43662,7.00946 -11.06618,11.98961 -3.78305,11.5616 -11.37729,22.79758 -22.99012,34.01484 -17.52881,16.93173 -28.32548,22.77761 -58.07738,31.4462 -15.97687,4.65506 -20.86781,7.02394 -26.24846,12.71318 -8.12134,8.58712 -11.53773,18.29018 -11.5848,32.9026 -0.0507,15.7397 2.57704,25.08066 13.15213,46.75237 3.34846,6.86203 6.72077,14.63108 7.49402,17.26455 1.2783,4.35344 1.28072,4.91106 0.0265,6.14224 -1.24523,1.22241 -1.53821,1.1605 -3.01233,-0.63664 -0.89812,-1.09492 -4.64702,-7.77916 -8.33089,-14.85388 -10.19343,-19.57605 -11.7134,-21.10564 -13.56135,-13.64722 -0.56798,2.29238 -3.02896,9.10369 -5.46884,15.13625 -7.33584,18.13765 -7.8251,19.89808 -7.80373,28.07883 0.0231,8.85221 1.58847,14.7833 7.79734,29.54439 5.60532,13.32621 6.05204,15.01961 4.15434,15.74783 -2.59028,0.99398 -5.76886,-3.25192 -12.09425,-16.15528 -3.39531,-6.92618 -6.5933,-12.39433 -7.14179,-12.21151 -1.64657,0.54887 -2.42017,8.34537 -1.93382,19.48931 0.38885,8.91 0.96006,12.11935 3.71371,20.86549 3.01184,9.56621 3.14735,10.44276 1.81972,11.77038 -1.92891,1.92891 -3.33305,0.70762 -7.26011,-6.31462 -5.91195,-10.57155 -6.86076,-14.44114 -6.8842,-28.07617 -0.0251,-14.62112 1.6099,-22.04675 10.499,-47.68236 7.98822,-23.03756 11.39414,-40.13323 13.18256,-66.16854 0.506,-7.36627 0.40024,-8.55527 -0.76103,-8.55527 -0.74178,0 -4.50376,2.54734 -8.35993,5.66076 -22.45033,18.12607 -26.4337,24.69161 -30.10455,49.61944 -2.05703,13.96888 -3.73381,19.3042 -6.0669,19.3042 -2.14301,0 -2.34511,-1.91377 -1.42073,-13.45353 0.56374,-7.03776 0.49148,-9.7709 -0.27845,-10.52956 -1.62593,-1.60217 -3.19007,1.22449 -6.72246,12.14858 -3.51141,10.85919 -5.85928,14.88977 -7.40493,12.71197 -1.3794,-1.94356 -0.38989,-12.61089 1.83138,-19.74293 5.98992,-19.2324 20.23875,-38.58315 40.17668,-54.5623 17.94769,-14.38406 28.09066,-24.65759 32.0696,-32.48238 2.2879,-4.49926 1.93205,-5.8479 -1.36882,-5.18773 -8.07855,1.6157 -20.41343,9.37098 -32.23937,20.26976 -4.64391,4.27982 -8.80642,7.43467 -9.60612,7.28066 -0.77616,-0.14947 -1.92063,-1.3347 -2.54329,-2.63382 -4.26453,-8.89766 19.10747,-27.75342 43.67572,-35.23613 4.10215,-1.24938 14.96076,-3.48694 24.13025,-4.97236 19.27853,-3.12302 30.94309,-6.68076 43.59283,-13.29598 21.90303,-11.45425 36.23499,-28.63718 42.40367,-50.83873 3.14402,-11.31559 5.2329,-16.79488 9.26378,-24.29968 11.08192,-20.63258 28.22792,-33.57443 49.04909,-37.02238 12.16552,-2.01459 26.07654,0.43511 40.29881,7.09654 8.35506,3.91333 10.66803,4.12547 22.47091,2.061 4.34217,-0.75951 12.6342,-1.85248 18.42674,-2.42884 10.40326,-1.03511 10.53516,-1.07601 10.80053,-3.34906 0.63568,-5.445 -9.61351,-28.13869 -18.01832,-39.89606 -7.048,-9.85934 -7.59262,-11.19803 -5.95757,-14.64365 0.75074,-1.58207 6.67339,-9.37207 13.16144,-17.31112 6.48805,-7.93904 11.8112,-14.88133 11.82923,-15.42731 0.018,-0.54598 -1.44796,-2.11099 -3.25773,-3.47781 -5.42802,-4.09949 -12.43117,-10.98973 -15.71088,-15.457568 -5.27443,-7.185222 -5.57215,-6.969031 -19.28683,14.005178 -13.50489,20.6534 -16.20454,23.91089 -19.81621,23.91089 -3.7105,0 -18.16432,-6.20664 -20.95676,-8.99908 -3.5137,-3.5137 -3.89985,-8.10362 -2.12543,-25.26318 0.83893,-8.112881 1.35724,-15.254971 1.15179,-15.871307 -0.2415,-0.724501 -4.38437,-1.63365 -11.72034,-2.572017 -6.24075,-0.798272 -12.80179,-1.743243 -14.58008,-2.099933 -3.19029,-0.639908 -3.24424,-0.603638 -4.05909,2.728879 -0.45421,1.857573 -1.70422,8.054324 -2.77781,13.770558 -3.39268,18.06421 -7.97512,28.65398 -12.39925,28.65398 -2.69645,0 -24.25168,11.41023 -35.13716,18.59979 -24.8957,16.44295 -43.52049,38.1054 -58.60319,68.16117 -8.32428,16.58807 -13.2063,30.19453 -19.37868,54.00952 -4.43985,17.13034 -5.81853,20.09492 -8.55141,18.38815 -3.10193,-1.93723 -3.79248,-4.82205 -3.52871,-14.74143 0.16675,-6.27073 -0.0713,-9.68677 -0.68944,-9.89368 -2.3362,-0.78201 -47.50536,28.38357 -58.29313,37.63968 -13.07361,11.2174 -24.95819,30.52982 -36.56356,59.41571 -11.66845,29.04289 -16.53965,54.11313 -16.46648,84.74671 0.0497,20.82753 1.42354,32.25452 6.12374,50.93594 8.52896,33.89929 27.14019,68.4797 52.63294,97.79414 34.37317,39.52613 102.95417,91.04853 155.29638,116.66851 23.63315,11.56773 42.81113,18.46116 59.66753,21.4472 8.65226,1.53271 24.2168,1.74028 30.43872,0.40591 z M 282.34776,274.38821 c 8.79442,-5.6918 21.2826,-13.49026 27.7515,-17.32991 16.80513,-9.97476 16.35946,-9.43803 17.09655,-20.58944 0.72705,-10.99978 -0.75544,-41.93554 -2.46877,-51.51648 -1.48257,-8.29052 -3.2223,-13.59704 -4.60639,-14.05039 -0.56706,-0.18573 -3.13364,1.56643 -5.70351,3.8937 -9.08157,8.22423 -15.46996,10.75925 -27.15975,10.77744 -4.29456,0.007 -7.00433,0.40346 -7.56199,1.10725 -0.47971,0.60539 -1.10199,10.1392 -1.38889,21.27849 -0.72716,28.23347 -3.71607,46.66615 -11.08919,68.3874 -1.46413,4.31332 -2.66205,7.96576 -2.66205,8.11653 0,1.13093 3.82662,-1.0358 17.79249,-10.07459 z m 365.21715,-16.41392 c 1.39664,-2.7984 1.74129,-5.19957 1.70026,-11.84576 -0.0618,-10.0132 -2.28398,-16.66382 -7.34582,-21.98492 -6.24758,-6.56756 -7.55905,-4.39711 -6.8416,11.32267 0.50498,11.06462 2.72904,20.02047 6.00652,24.18713 2.44187,3.10432 4.33856,2.61289 6.48064,-1.67912 z M 454.21363,242.07364 c 16.23335,-9.04817 35.64426,-17.04411 56.03144,-23.08106 1.20652,-0.35726 2.31065,-1.25238 2.45363,-1.98915 0.74107,-3.81865 -20.55685,-6.73762 -30.09373,-4.12447 -12.28579,3.36637 -31.53737,16.93094 -38.10791,26.85065 -2.70547,4.0845 -3.55414,8.15385 -1.70051,8.15385 0.5465,0 5.68419,-2.61442 11.41708,-5.80982 z m -96.74192,-51.91716 c 5.39465,-10.57437 30.23771,-37.46656 44.68626,-48.3721 4.01464,-3.03019 7.47751,-5.97372 7.69527,-6.54117 0.21775,-0.56746 -1.3409,-5.76094 -3.46367,-11.54107 -2.12277,-5.78014 -5.7346,-17.02451 -8.0263,-24.987487 -2.29171,-7.962982 -4.43506,-14.983773 -4.76302,-15.601757 -0.66435,-1.251831 -2.33899,-0.189007 -11.17628,7.093082 -10.24619,8.443045 -20.6896,13.387082 -34.06058,16.124672 -5.8748,1.20282 -7.95946,1.99185 -8.1715,3.09287 -0.15655,0.81296 1.16777,5.34992 2.94294,10.08213 6.53407,17.41835 10.03848,36.41246 10.05189,54.48167 0.009,11.60831 0.75763,19.4934 1.85169,19.4934 0.40557,0 1.50056,-1.49591 2.4333,-3.32424 z m -55.54525,-17.9736 c 5.66083,-2.89101 10.01184,-7.73663 10.01184,-11.14991 0,-1.43486 -0.92826,-3.63117 -2.11952,-5.01489 -2.04072,-2.37042 -2.42404,-2.46195 -10.3102,-2.46195 -6.8104,0 -8.89201,0.34539 -12.3525,2.0496 -5.24316,2.58213 -7.84866,6.19707 -8.36889,11.61123 -0.38632,4.02051 -0.26377,4.31261 2.55261,6.0846 4.22131,2.65593 14.26428,2.11019 20.58666,-1.11868 z m 285.02491,-63.47127 c 2.08306,-0.79935 1.68811,-3.1007 -1.30856,-7.62485 -5.56633,-8.403621 -22.74992,-19.850952 -22.74992,-15.155497 0,4.706972 11.71445,18.562247 18.42673,21.794237 3.48327,1.6772 3.7219,1.71899 5.63175,0.98611 z M 352.68407,94.743862 c 10.85836,-2.828244 27.56076,-13.718635 31.96205,-20.840076 2.67389,-4.32643 2.49602,-7.466383 -0.46502,-8.209557 -7.24452,-1.81826 -46.04367,15.823052 -50.42985,22.929593 -2.03061,3.290004 -2.02486,3.55501 0.12364,5.703513 2.21034,2.210344 11.16124,2.40856 18.80918,0.416527 z"
       id="path27" />
    <path
       style="fill:#1f5c35;fill-opacity:1;stroke-width:0.877464"
       d="m 417.67266,479.60498 c -1.44781,-0.35412 -3.44684,-1.08158 -4.44228,-1.61658 -3.51764,-1.89054 -8.94729,-8.75292 -10.98327,-13.88141 -1.79202,-4.51399 -2.0618,-6.68609 -2.0618,-16.60056 0,-12.90974 1.39779,-17.98592 6.95779,-25.26762 9.82583,-12.8685 27.55374,-8.72768 33.77046,7.88799 4.61603,12.33743 4.13851,24.76091 -1.38647,36.07124 -4.85543,9.93969 -13.74182,15.39118 -21.85443,13.40694 z"
       id="path28" />
    <path
       style="fill:#1f5c35;fill-opacity:1;stroke-width:0.877464"
       d="m 582.63582,479.07841 c -3.88591,-1.95166 -8.07671,-7.08598 -10.01725,-12.27252 -3.6465,-9.74615 -4.05127,-23.95618 -0.9875,-34.66711 1.70195,-5.95002 6.37543,-12.47072 10.48466,-14.62879 11.65994,-6.12354 23.45836,2.45542 27.16844,19.75491 3.63527,16.95071 -1.56343,35.01786 -11.80856,41.03851 -4.21222,2.47535 -10.77214,2.81793 -14.83979,0.775 z"
       id="path29" />
    <path
       style="fill:#1f5c35;fill-opacity:1;stroke-width:0.877464"
       d="m 498.83805,588.6644 c -5.8583,-1.13258 -15.76153,-4.15342 -21.19216,-6.46436 -22.89604,-9.74314 -42.77614,-33.27899 -42.84186,-50.72005 -0.0317,-8.42136 3.23426,-13.17539 10.3489,-15.06406 4.81,-1.27688 10.97557,-0.0888 20.3403,3.91946 14.80655,6.33747 33.70105,9.00396 52.79658,7.45093 12.97737,-1.05544 17.58919,-1.84738 33.58871,-5.76779 13.1464,-3.22131 16.69618,-3.57078 20.17414,-1.98612 3.05713,1.39292 4.49428,3.87258 5.74989,9.92083 4.68571,22.57095 -17.28339,48.11648 -48.71823,56.64923 -6.83665,1.85576 -24.93196,3.08934 -30.24627,2.06193 z m 28.46044,-9.07799 c 8.14099,-3.0952 -8.43484,-17.03596 -25.82805,-21.72216 -8.03751,-2.16552 -30.56931,-2.2019 -35.31791,-0.057 -8.10608,3.6614 -0.22773,11.00492 18.6461,17.38027 13.13222,4.43591 36.13921,6.81724 42.49986,4.39892 z"
       id="path30" />
    <path
       style="fill:#1f5c35;fill-opacity:1;stroke-width:0.877464"
       d="m 617.53248,372.35128 c -10.24226,-9.30503 -22.36897,-13.36821 -33.9032,-11.35961 -7.61298,1.32574 -8.23765,1.25608 -10.68545,-1.19172 -2.63662,-2.63663 -2.74702,-5.62999 -0.32137,-8.71371 8.00228,-10.17326 32.39157,-7.21462 45.46032,5.51474 4.98275,4.85335 8.86495,11.91114 8.86495,16.11638 0,2.75653 -1.26142,5.03071 -2.7904,5.03071 -0.37646,0 -3.35764,-2.42855 -6.62485,-5.39679 z"
       id="path31" />
    <path
       style="fill:#1f5c35;fill-opacity:1;stroke-width:0.877464"
       d="m 384.76738,378.18632 c -0.60101,-0.72417 -1.29206,-3.08499 -1.53566,-5.24626 -1.61723,-14.348 23.22167,-32.321 42.77685,-30.95259 6.20617,0.43428 12.51503,3.07851 14.01008,5.87202 1.44201,2.69443 1.05931,5.78704 -0.94005,7.59663 -1.58264,1.43242 -3.30871,1.68146 -12.06513,1.74079 -10.53357,0.0714 -14.15063,0.81741 -21.28084,4.38927 -5.69416,2.85248 -8.9014,5.77083 -12.71451,11.56927 -4.43577,6.74531 -6.02411,7.7138 -8.25074,5.03087 z"
       id="path32" />
    <path
       style="fill:#1f5c35;fill-opacity:1;stroke-width:0.877464"
       d="m 337.82348,94.380988 c -2.03802,-0.387659 -2.69336,-1.026804 -2.90243,-2.830691 -0.21801,-1.881062 0.49774,-2.916219 3.71494,-5.372729 8.3908,-6.406852 37.30822,-19.051604 43.56931,-19.051604 8.74664,0 -6.14006,15.713877 -21.68114,22.885858 -7.96326,3.674929 -17.10269,5.43398 -22.70068,4.369166 z"
       id="path33" />
    <path
       style="fill:#1f5c35;fill-opacity:1;stroke-width:0.877464"
       d="m 282.32391,171.9997 c -2.54032,-1.84325 -2.64286,-6.70419 -0.21338,-10.11608 0.9685,-1.36013 3.81004,-3.4941 6.31453,-4.74214 3.7012,-1.84438 5.80679,-2.26916 11.24808,-2.26916 5.86312,0 6.9314,0.2522 8.60235,2.03085 6.01797,6.40582 -3.69564,15.45755 -17.3627,16.17961 -5.13798,0.27145 -7.05532,0.0297 -8.58888,-1.08308 z"
       id="path34" />
    <path
       style="fill:#1f5c35;fill-opacity:1;stroke-width:0.877464"
       d=""
       id="path35" />
    <path
       style="fill:#1f5c35;fill-opacity:1;stroke-width:0.877464"
       d="m 580.88089,105.56137 c -6.36259,-4.52548 -16.23308,-15.596022 -16.23308,-18.206702 0,-1.616705 8.09916,3.172995 13.48992,7.977703 4.67938,4.170665 8.44667,9.149759 8.44667,11.163659 0,1.57204 -2.83162,1.108 -5.70351,-0.93466 z"
       id="path36" />
    <path
       style="fill:#0eac47;fill-opacity:1;stroke-width:0.877464"
       d="m 642.07572,257.82985 c -3.2109,-4.51327 -4.75753,-11.54761 -5.24611,-23.86027 -0.46376,-11.68712 -0.45989,-11.71745 1.37183,-10.73715 7.24155,3.87556 12.17533,21.65589 8.8127,31.75917 -1.67276,5.02593 -2.88597,5.7232 -4.93842,2.83825 z"
       id="path37" />
    <path
       style="fill:#7d9780;fill-opacity:1;stroke-width:0.877464"
       d="m 426.88603,968.20485 c -58.29176,-5.59992 -101.34806,-16.25925 -114.8129,-28.42394 -3.08372,-2.78594 -3.64468,-3.81724 -3.64468,-6.70049 0,-3.25096 0.1296,-3.40776 2.81666,-3.40776 1.54916,0 7.96561,1.76128 14.25878,3.91393 19.67595,6.73042 29.35984,8.13506 36.24668,5.25756 4.94452,-2.06595 7.1617,-4.58389 10.63078,-12.07284 2.70019,-5.8291 4.02304,-7.52941 8.87658,-11.40933 10.67745,-8.53557 13.20366,-18.35576 7.91288,-30.75987 l -2.5692,-6.02342 2.52049,-3.18995 c 7.77876,-9.84486 4.60214,-21.78725 -8.38168,-31.51074 -14.27837,-10.69297 -32.62972,-16.8143 -54.7627,-18.26682 -13.41112,-0.88014 -12.67658,-0.29356 -14.37451,-11.47905 -2.95465,-19.46432 -7.56208,-54.97445 -7.56208,-58.28196 0,-3.11431 0.71886,-4.17863 7.94734,-11.76638 7.71359,-8.097 7.93941,-8.45186 7.6778,-12.06568 -0.25896,-3.57734 -0.39252,-3.73366 -3.40633,-3.98651 -4.15114,-0.34827 -7.73761,2.1351 -33.42863,23.14684 -31.35194,25.64159 -36.37408,29.12575 -40.80132,28.30629 -0.88273,-0.16339 -7.25533,-7.40452 -14.16132,-16.09141 -11.59739,-14.5881 -22.42479,-26.85792 -43.21775,-48.97523 l -8.09624,-8.6119 3.85634,-3.93316 c 15.07562,-15.37593 100.51513,-75.87439 107.02925,-75.78584 0.68489,0.009 6.9707,4.95626 13.96847,10.99322 58.5076,50.47435 126.52468,90.11902 176.37018,102.79972 11.60153,2.95142 12.14427,3.00614 26.32391,2.65387 12.01594,-0.29852 15.35421,-0.68001 19.62953,-2.24324 13.76772,-5.03402 34.48015,-17.6041 48.68798,-29.54806 9.66748,-8.12706 30.40672,-29.36599 38.12573,-39.04433 3.27168,-4.10214 9.76113,-12.91305 14.421,-19.57981 4.65987,-6.66675 8.81371,-12.33225 9.23075,-12.58999 1.23524,-0.76342 13.47126,6.71046 41.88787,25.58552 30.30491,20.12932 41.24079,27.99617 41.24079,29.66704 0,6.8578 -34.64183,75.96996 -39.59899,79.00198 -1.06797,0.65322 -3.17547,0.0486 -8.33591,-2.39158 -10.28814,-4.86482 -23.31378,-12.3961 -25.53674,-14.76506 -1.6833,-1.79385 -2.52462,-5.65549 -5.99001,-27.49382 -2.21741,-13.97377 -4.49796,-26.394 -5.0679,-27.60052 -0.83588,-1.76948 -1.78275,-2.24713 -4.89684,-2.47021 l -3.86056,-0.27656 0.54304,11.68358 c 0.29868,6.42598 3.30728,39.32369 6.68577,73.10604 11.94579,119.44858 14.61134,149.99441 13.33382,152.79829 -1.22324,2.6847 -6.63764,5.67384 -19.58507,10.81237 -31.60925,12.54498 -71.11326,20.39127 -110.70611,21.98845 -32.45352,1.30918 -67.78545,0.91748 -87.42495,-0.96924 z"
       id="path38" />
    <path
       style="fill:#33ab5f;fill-opacity:1;stroke-width:0.877464"
       d="m 500.79905,578.25074 c -13.10334,-2.37524 -26.13999,-7.31004 -33.33033,-12.61663 -2.05107,-1.51373 -3.72922,-3.3319 -3.72922,-4.04039 0,-4.3083 19.35996,-6.38607 33.44263,-3.58916 12.18272,2.41957 27.39995,10.72071 30.58833,16.68622 1.18323,2.21384 1.15055,2.52158 -0.38708,3.64592 -2.16497,1.58307 -17.65317,1.53298 -26.58433,-0.086 z"
       id="path41" />
    <path
       style="fill:#6099a6;fill-opacity:1;stroke-width:0.877464"
       d="m 435.66067,968.571 c -43.07449,-3.06457 -91.71238,-12.6962 -111.95982,-22.17109 -11.14183,-5.21387 -17.53242,-12.2109 -14.198,-15.54531 1.29908,-1.29908 2.69472,-0.97521 23.05585,5.3501 10.84569,3.36928 21.15525,4.75094 27.11187,3.63348 4.63846,-0.87018 8.82383,-5.02819 12.84893,-12.76495 2.63218,-5.05938 4.99128,-8.08172 9.23331,-11.82916 3.46548,-3.06143 6.58761,-6.78943 7.96894,-9.51536 2.01715,-3.98065 2.22229,-5.22296 1.83436,-11.10871 -0.26792,-4.06499 -1.20123,-8.40856 -2.41423,-11.23565 l -1.97745,-4.60881 2.26249,-3.28837 c 3.05641,-4.44227 4.11916,-7.52991 4.09623,-11.90076 -0.0533,-10.15174 -9.9949,-20.51915 -27.57755,-28.75865 -11.67485,-5.47102 -20.73095,-7.47324 -45.47505,-10.0541 -3.90499,-0.4073 -5.35989,-0.97346 -6.33809,-2.46638 -1.24205,-1.89561 -4.93619,-25.65826 -8.27207,-53.21045 -1.95394,-16.13814 -2.16719,-15.40508 7.66102,-26.33503 6.04733,-6.72524 6.39408,-7.33481 6.14224,-10.79733 -0.24836,-3.41462 -0.46064,-3.68847 -3.05408,-3.93984 -4.22452,-0.40946 -8.04436,1.99767 -25.74081,16.22093 -8.93393,7.1805 -20.1874,16.22836 -25.00771,20.10633 -11.17811,8.99285 -15.83086,12.23869 -20.02695,13.9712 l -3.36556,1.38958 -2.87976,-3.05343 c -1.58387,-1.67939 -8.01358,-9.29983 -14.28825,-16.93432 -6.27467,-7.63448 -17.28433,-20.32322 -24.46591,-28.1972 -7.18158,-7.87398 -15.38904,-16.87643 -18.23879,-20.00543 l -5.18139,-5.6891 3.42646,-3.58398 c 14.08566,-14.73323 99.41441,-75.31422 106.05608,-75.29679 1.01263,0.003 8.45007,5.56416 17.14415,12.81991 59.36333,49.54237 120.25668,85.26358 169.15913,99.23196 10.21893,2.91892 12.32558,3.21863 24.99142,3.55543 8.32725,0.22143 16.25878,-0.0416 19.93035,-0.66085 11.2073,-1.89036 35.79189,-15.67331 52.82207,-29.61386 3.53482,-2.89352 13.53439,-12.53791 22.22128,-21.43198 12.80638,-13.11181 18.17826,-19.44122 28.39567,-33.45719 6.93073,-9.50739 13.08051,-17.28616 13.66617,-17.28616 2.55086,0 64.79797,40.74059 77.01315,50.40493 l 5.00473,3.95961 -1.60146,4.62578 c -2.6538,7.66549 -10.15582,23.73716 -20.33636,43.56685 -11.60287,22.60012 -16.72148,30.8173 -19.19659,30.8173 -2.14766,0 -20.55703,-9.37796 -27.21789,-13.86513 -2.64966,-1.78498 -5.27977,-4.23256 -5.84471,-5.43907 -0.56493,-1.20651 -2.85819,-13.03816 -5.09613,-26.29256 -2.23795,-13.25439 -4.54668,-25.10015 -5.13052,-26.3239 -0.88016,-1.84486 -1.76839,-2.27054 -5.19871,-2.49149 l -4.13719,-0.26647 0.48745,7.28618 c 0.88219,13.18691 4.70205,54.82127 9.16179,99.85859 6.13245,61.92951 10.30833,107.3813 11.0116,119.85407 l 0.59821,10.60985 -3.04994,2.32629 c -6.07105,4.63063 -32.32688,14.38186 -52.03912,19.32697 -20.17367,5.06087 -42.82238,8.57258 -65.80977,10.20388 -10.9839,0.77947 -78.22926,1.00796 -88.18509,0.29964 z"
       id="path42" />
    <path
       style="fill:#ffffff;stroke-width:0.877464"
       d="m 412.51669,493.01464 c -15.92676,-4.89087 -27.77454,-24.29657 -27.73593,-45.42919 0.0258,-14.13414 4.61578,-25.96459 13.89141,-35.80465 7.81214,-8.28751 13.12244,-10.77993 22.96755,-10.77993 6.65123,0 8.11201,0.31267 13.22838,2.83145 17.63556,8.68196 27.78047,32.35882 23.1763,54.0904 -3.71936,17.55532 -16.81982,32.0669 -32.13643,35.59801 -5.13956,1.18487 -8.27003,1.06657 -13.39128,-0.50609 z m 17.00175,-14.40253 c 3.73437,-1.89926 8.92647,-7.23525 10.95231,-11.25585 7.55224,-14.98861 5.31811,-37.47126 -4.71642,-47.46234 -11.69069,-11.64008 -28.16932,-6.35018 -34.49489,11.07342 -2.3313,6.42149 -3.13909,20.39075 -1.5862,27.43039 3.96735,17.98493 16.94541,26.77508 29.8452,20.21438 z"
       id="path2" />
    <path
       style="fill:#ecf9f2;stroke-width:0.877464;fill-opacity:1"
       d="m 581.6344,492.88612 c -9.12094,-3.25706 -17.26366,-11.42489 -22.16397,-22.23229 -3.62736,-7.99997 -4.78617,-14.98274 -4.24239,-25.56396 0.94316,-18.35294 9.5528,-33.8198 22.66019,-40.7081 4.24733,-2.23209 5.62601,-2.49545 13.08351,-2.49922 7.52046,-0.004 8.77538,0.2394 12.8284,2.48611 14.37983,7.97119 23.10294,24.59729 23.13464,44.09425 0.0313,19.25435 -8.76461,36.73169 -21.66185,43.04172 -6.48153,3.17112 -16.91878,3.7811 -23.63853,1.38149 z m 14.88874,-12.79342 c 4.04374,-1.68958 9.84728,-8.63641 12.0879,-14.46918 2.32752,-6.05901 3.25429,-20.9932 1.75151,-28.2243 -2.91049,-14.00477 -10.89442,-22.79766 -20.70023,-22.79766 -5.39823,0 -9.02893,1.66598 -12.84337,5.89331 -12.75849,14.13953 -10.02602,51.42268 4.32419,59.00124 3.86516,2.04125 11.23797,2.32724 15.38,0.59659 z"
       id="path3" />
    <path
       style="fill:#ecf9f2;fill-opacity:1;stroke-width:0.877464"
       d="m 412.51669,493.01464 c -15.92676,-4.89087 -27.77454,-24.29657 -27.73593,-45.42919 0.0258,-14.13414 4.61578,-25.96459 13.89141,-35.80465 7.81214,-8.28751 13.12244,-10.77993 22.96755,-10.77993 6.65123,0 8.11201,0.31267 13.22838,2.83145 17.63556,8.68196 27.78047,32.35882 23.1763,54.0904 -3.71936,17.55532 -16.81982,32.0669 -32.13643,35.59801 -5.13956,1.18487 -8.27003,1.06657 -13.39128,-0.50609 z m 17.11425,-14.44019 c 16.14388,-8.11147 20.47697,-38.77304 7.98412,-56.49679 -5.19188,-7.36578 -15.52737,-10.32577 -23.45224,-6.71652 -9.6862,4.41143 -15.36874,16.575 -15.34519,32.84659 0.0345,23.81517 14.83084,38.39709 30.81331,30.36672 z"
       id="path4" />
  </g>
</svg>
