<?xml version="1.0" encoding="UTF-8" standalone="no"?>
<svg
   version="1.1"
   id="Layer_1"
   x="0px"
   y="0px"
   width="34.02039"
   viewBox="0 0 34.02039 48"
   enable-background="new 0 0 1024 1024"
   xml:space="preserve"
   sodipodi:docname="logo_small.svg"
   inkscape:version="1.4 (86a8ad7, 2024-10-11)"
   height="48"
   xmlns:inkscape="http://www.inkscape.org/namespaces/inkscape"
   xmlns:sodipodi="http://sodipodi.sourceforge.net/DTD/sodipodi-0.dtd"
   xmlns="http://www.w3.org/2000/svg"
   xmlns:svg="http://www.w3.org/2000/svg"><defs
   id="defs2" /><sodipodi:namedview
   id="namedview2"
   pagecolor="#ffffff"
   bordercolor="#000000"
   borderopacity="0.25"
   inkscape:showpageshadow="2"
   inkscape:pageopacity="0.0"
   inkscape:pagecheckerboard="0"
   inkscape:deskcolor="#d1d1d1"
   inkscape:zoom="0.87"
   inkscape:cx="-118.96552"
   inkscape:cy="300.57471"
   inkscape:window-width="2364"
   inkscape:window-height="1211"
   inkscape:window-x="52"
   inkscape:window-y="52"
   inkscape:window-maximized="0"
   inkscape:current-layer="Layer_1"
   inkscape:clip-to-page="false" />

<path
   fill="#000000"
   opacity="1"
   d="M 6.9563209,7.849283 C 7.0373708,8.3311761 7.1246785,8.7842256 7.1789012,9.2412024 7.3800553,10.936471 6.7013185,12.34893 5.7312961,13.662211 4.9655094,14.698986 4.0257255,15.582743 3.1786915,16.548171 2.9589417,16.798637 2.7790016,17.087586 2.4837616,17.323043 2.3787717,16.891335 2.5433165,16.529047 2.6089529,16.162485 2.7675694,15.27665 2.8527763,14.384696 2.9203131,13.488489 3.0286298,12.051092 3.004545,10.612858 2.9765299,9.1746292 2.9658715,8.6274878 2.9218762,8.0803296 2.8742465,7.534823 2.8452185,7.2023405 2.9107039,6.9321826 3.2008383,6.7306694 4.0818361,6.1187726 5.0636387,5.9239354 6.1106626,6.0422832 c 0.319658,0.03613 0.5266186,0.2777837 0.601584,0.5880182 0.095034,0.3932895 0.1582224,0.7942743 0.2440743,1.2189816 M 4.5834695,14.787597 C 5.1571067,14.206355 5.656899,13.564674 6.0881511,12.873844 6.7025247,11.889668 7.1358082,10.839832 7.0610218,9.6490204 6.9991057,8.6631489 6.8047604,7.695095 6.5957334,6.7316837 6.5206062,6.385428 6.2290921,6.1618848 5.8486297,6.1403184 4.9920654,6.0917664 4.1937483,6.2993659 3.4558007,6.7326749 3.1527135,6.910644 2.9837501,7.1505211 3.0154834,7.5402072 c 0.067619,0.8303414 0.1105907,1.6635302 0.1342023,2.4963848 0.024898,0.878199 -0.00912,1.756131 -0.050367,2.634611 -0.052499,1.118048 -0.1239346,2.231552 -0.3286909,3.333635 -0.054155,0.291485 -0.095405,0.585363 -0.1506717,0.928349 0.6731561,-0.735594 1.3025071,-1.42332 1.9635134,-2.14559 z"
   id="path2"
   style="fill:none;stroke:none;stroke-width:0.0660091" />
<path
   style="fill:#34ac60;fill-opacity:1;stroke:#1f5c35;stroke-width:0.0579206;stroke-opacity:1"
   d="M 20.484883,47.735084 C 19.119249,47.522711 17.804244,47.046345 15.756733,46.022287 12.172945,44.229865 9.2200191,42.106322 6.4291215,39.314507 3.4160888,36.300484 1.452343,33.263083 0.66054363,30.392027 0.33012592,29.193935 0.22577833,28.471972 0.19173995,27.148462 0.14636116,25.383973 0.34977756,24.040109 0.90188969,22.456877 1.6835791,20.215312 2.8948863,18.312571 5.0452503,15.948421 5.5050423,15.442917 6.033243,14.856469 6.2190274,14.645203 7.3212889,13.391764 8.0231554,12.149398 8.3829898,10.814796 8.5860049,10.061824 8.6311239,8.7986299 8.4899583,7.81998 8.2954282,6.4713734 7.9670108,5.4020544 7.1683239,3.5167745 6.7215322,2.4621359 6.6584002,2.1842272 6.8023666,1.9058262 7.1381794,1.2564368 9.6738149,0.07898368 10.531731,0.174051 c 0.449515,0.0498113 0.586124,0.26621638 0.903554,1.4313376 0.511975,1.8791971 1.274084,3.9699636 1.546338,4.2422176 0.259956,0.2599546 0.478665,0.2219933 0.831485,-0.1443216 0.357078,-0.3707347 0.633401,-0.9254331 0.790484,-1.5868336 0.09561,-0.4025719 0.120912,-0.729266 0.133299,-1.7211767 0.01799,-1.44061385 0.04258,-1.52701615 0.482841,-1.69687735 0.219373,-0.0846372 0.43759,-0.10662293 1.058288,-0.10662293 0.917127,0 1.274066,0.0960978 1.422403,0.38294933 0.05934,0.11475535 0.124857,0.63098675 0.20234,1.59434965 0.176576,2.1954017 0.32092,2.6146649 0.83258,2.4183219 0.189595,-0.072755 1.09046,-1.6672207 1.656647,-2.9321453 0.365712,-0.8170413 0.619514,-1.14492435 0.886213,-1.14488144 0.560989,6.6e-5 2.646475,1.13281624 2.830908,1.53760144 0.08948,0.1963791 0.03298,0.3056081 -0.891358,1.7232658 -0.840357,1.2888592 -0.973891,1.5685849 -0.973891,2.0401086 0,0.4204157 0.126345,0.6751886 0.698204,1.4079374 0.256812,0.3290635 0.458789,0.6405739 0.448839,0.692244 -0.01325,0.068796 -0.242855,0.1516176 -0.857692,0.3093792 -1.38459,0.3552734 -2.682647,0.8632397 -3.851479,1.5071924 -2.456556,1.353407 -4.222319,2.948795 -6.341142,5.729293 -0.669596,0.878702 -1.815853,2.0378 -2.7630852,2.794039 -0.388141,0.309879 -1.321129,0.979396 -2.0733063,1.487817 -1.5958295,1.078671 -2.0129673,1.408535 -2.7306399,2.15933 -0.8070607,0.84431 -1.3673441,1.749074 -1.7098508,2.761122 -0.2977061,0.879669 -0.1961151,1.426783 0.2567368,1.382649 0.1743419,-0.01699 0.2138095,-0.07332 0.7812167,-1.11495 0.6644944,-1.219859 0.9892408,-1.688766 1.5297054,-2.20877 0.5459295,-0.525262 1.4810477,-1.240958 1.6214189,-1.240958 0.022502,0 -0.051308,0.201998 -0.164029,0.448886 -0.6402288,1.402269 -1.4324159,4.382436 -1.7249356,6.489121 -0.2751984,1.981936 0.1237219,3.756274 1.0535697,4.686122 0.1574175,0.157416 0.2354093,0.191385 0.4359475,0.189872 0.2659234,-0.002 0.3893933,-0.07043 0.499272,-0.276679 0.088685,-0.166469 0.051807,-0.339457 -0.1992955,-0.934844 -0.5836181,-1.38381 -0.733752,-2.831202 -0.4599197,-4.433913 0.1109343,-0.649281 0.4958794,-2.229999 0.5430168,-2.229813 0.01921,6.6e-5 0.1118636,0.147382 0.2059037,0.327347 0.3470054,0.66407 0.9827558,1.55088 1.4280826,1.992037 0.773003,0.765765 1.3685019,0.943562 1.7458619,0.52126 C 10.889346,28.351456 10.846355,28.25398 10.13756,27.571711 9.7866692,27.233951 9.3720428,26.785514 9.2161671,26.575185 7.9735767,24.898507 7.8125242,23.089618 8.7581756,21.431157 c 0.3194779,-0.560293 1.1351736,-1.423256 2.0463284,-2.16491 1.322606,-1.07656 1.717556,-1.497829 2.954802,-3.151698 0.4528,-0.605273 1.036961,-1.330209 1.298135,-1.610969 1.656369,-1.780584 3.499049,-3.080044 5.767362,-4.06715 1.967086,-0.8560208 4.690114,-1.5393608 6.197526,-1.5552608 0.598861,-0.00632 0.658002,0.0037 0.984654,0.1670424 0.283892,0.1419456 0.381613,0.230989 0.533697,0.4863005 0.276992,0.4650005 0.391913,1.0465509 0.39035,1.9753329 -0.0012,0.671604 -0.01866,0.82006 -0.124219,1.05217 -0.0676,0.148631 -0.183986,0.309928 -0.258643,0.358439 -0.07466,0.04851 -0.720832,0.23467 -1.435943,0.413691 -1.30259,0.326088 -2.441272,0.666653 -2.739773,0.81943 -0.217575,0.111358 -0.216539,0.335568 0.0021,0.448618 0.08875,0.04589 0.520328,0.191848 0.959071,0.324348 2.979189,0.899706 5.013556,2.368099 6.581019,4.750137 1.94262,2.952156 2.440062,6.939125 1.474227,11.815844 -0.601549,3.037359 -1.858128,6.446498 -3.31994,9.007106 -1.947655,3.411643 -4.693843,6.259672 -6.77111,7.022211 -0.814425,0.298965 -1.787391,0.372726 -2.81291,0.213245 z"
   id="path3" /><path
   style="fill:#34ac60;fill-opacity:1;stroke:#1f5c35;stroke-width:0.0660091;stroke-opacity:1"
   d="M 2.6881054,16.679276 C 2.7484148,16.470497 2.9521943,15.04881 3.0098145,14.434846 3.1929251,12.483724 3.221418,9.7956873 3.0782708,7.9766765 3.011101,7.1231347 3.0986243,6.9541109 3.7882304,6.6056126 4.3307316,6.3314549 4.9531667,6.1811318 5.5458529,6.1811318 c 0.812472,0 0.9229406,0.1102282 1.1385811,1.1361019 0.3372053,1.6042027 0.413052,2.7720683 0.2320478,3.5730093 -0.1836969,0.812856 -0.6622046,1.748218 -1.4076206,2.751541 -0.3001781,0.404037 -2.7601619,3.138854 -2.823418,3.138854 -0.014639,0 -0.013441,-0.04561 0.00266,-0.101362 z"
   id="path4" /><path
   fill="#000000"
   opacity="1"
   stroke="none"
   d="m 33.329395,32.594343 c -0.605449,2.456995 -1.437097,4.803031 -2.584114,7.030697 -1.206923,2.344004 -2.691751,4.490396 -4.652572,6.271009 -0.970959,0.881731 -2.010976,1.684895 -3.340156,1.973746 -1.27265,0.276556 -2.517625,0.08109 -3.735699,-0.291188 C 17.264382,47.04301 15.624291,46.246241 14.038495,45.33505 11.964234,44.143187 9.998317,42.793311 8.1908458,41.2254 5.8873575,39.227203 3.8201011,37.017018 2.2265469,34.395443 1.3466752,32.947959 0.66744363,31.420147 0.31337142,29.755171 -0.05359899,28.029537 -0.10032634,26.302444 0.18406043,24.557557 0.64339506,21.739253 1.9668034,19.344414 3.7305832,17.155381 4.6074111,16.067149 5.6154174,15.094937 6.5008729,14.014528 7.4513713,12.854751 8.1166253,11.55656 8.3787677,10.071347 8.5635001,9.0246974 8.3808317,7.9991731 8.1743377,6.9736306 7.8942044,5.5823774 7.3038874,4.3056391 6.7572601,3.0114908 6.3701578,2.0950163 6.4871079,1.6688493 7.3347927,1.1634903 8.1566487,0.67352993 9.0095669,0.24553781 9.9657394,0.05997496 c 0.9096066,-0.1765255 1.2667016,0.0098532 1.4895816,0.91965418 0.316909,1.29361956 0.716169,2.55868816 1.190125,3.80204756 0.113912,0.2988334 0.239521,0.5902697 0.405566,0.8640161 0.123179,0.2030803 0.276156,0.234324 0.465633,0.090874 0.432225,-0.3272304 0.660107,-0.7913928 0.818602,-1.2862617 0.226397,-0.7068764 0.321453,-1.4338261 0.22903,-2.1778142 -0.04519,-0.363804 0.0043,-0.7264415 0.05107,-1.0845211 0.05162,-0.39481188 0.265331,-0.66141376 0.692095,-0.72323813 0.591282,-0.0856564 1.186736,-0.10332906 1.771562,-0.006893 0.708297,0.11679498 0.87436,0.33234061 0.922797,1.05642093 0.05561,0.8312327 0.07132,1.6652734 0.199822,2.4909434 0.03389,0.217728 0.05895,0.4369906 0.158991,0.6352774 0.124859,0.2474605 0.248267,0.2645485 0.408238,0.034707 0.206938,-0.2973272 0.402784,-0.6048787 0.574867,-0.9234451 0.381402,-0.7060782 0.738882,-1.4246065 1.054759,-2.1632393 0.38372,-0.89726645 0.683594,-1.02301958 1.582766,-0.66927543 0.66824,0.26288883 1.287295,0.62015193 1.888011,1.00829023 0.48943,0.3162356 0.572284,0.709782 0.251617,1.2101639 -0.444512,0.6936382 -0.910276,1.3736375 -1.356254,2.0663572 -0.516782,0.8026934 -0.507939,1.1790993 0.05098,1.9519958 0.238036,0.3291624 0.506831,0.6359721 0.757637,0.9560822 0.06636,0.084693 0.117825,0.1810512 0.1713,0.2645131 -0.0888,0.1761072 -0.243187,0.1699834 -0.377652,0.2007221 -1.561348,0.3569371 -3.059705,0.8894856 -4.47363,1.6432029 -2.266983,1.208456 -4.144077,2.877654 -5.726442,4.890653 -0.658688,0.837949 -1.275853,1.71273 -2.044338,2.457023 -0.838807,0.812398 -1.764847,1.520145 -2.7188004,2.192734 -0.9515208,0.670875 -1.9707058,1.244255 -2.8502645,2.019415 -1.1826388,1.042261 -2.0599989,2.276074 -2.4865354,3.80924 -0.039495,0.141962 -0.05474,0.282688 -0.028879,0.423131 0.022594,0.122695 0.090713,0.231153 0.2246813,0.257937 0.1250488,0.025 0.1722052,-0.08673 0.217415,-0.168198 0.2612756,-0.470816 0.5292148,-0.938675 0.769877,-1.420047 0.6356121,-1.271359 1.617898,-2.203862 2.8212656,-2.923446 0.1733304,-0.103645 0.3145272,-0.273771 0.5379979,-0.296317 0.075433,0.143952 -0.019675,0.2535 -0.067085,0.345705 -0.9348543,1.818213 -1.383481,3.788281 -1.802903,5.765895 -0.2214495,1.04416 -0.3585567,2.10172 -0.2672079,3.172136 0.077984,0.913813 0.3386299,1.767011 0.9420254,2.485769 0.042384,0.05049 0.085986,0.100299 0.1326629,0.146765 0.1413,0.140664 0.3014223,0.245202 0.4956691,0.114291 C 7.2363207,33.362535 7.2509194,33.168456 7.1685351,32.964723 7.049125,32.669429 6.91097,32.381082 6.8039583,32.081506 6.258291,30.553927 6.3050871,29.001354 6.63239,27.441262 c 0.1350485,-0.64372 0.2873026,-1.283838 0.4318306,-1.925568 0.016526,-0.07339 0.01464,-0.157433 0.126046,-0.195333 0.1552858,0.07267 0.1892914,0.245151 0.2581493,0.385734 0.4871592,0.994601 1.0587485,1.926443 1.9227317,2.64732 0.1709016,0.142599 0.3577353,0.24928 0.5671632,0.327964 0.2458832,0.09238 0.4439312,0.02576 0.5803572,-0.172888 0.154172,-0.224469 -0.02651,-0.374493 -0.178945,-0.496504 C 9.5825717,27.405945 8.9689916,26.686261 8.5150772,25.824815 7.5909826,24.071061 7.8922287,21.893322 9.2377858,20.43241 c 0.7130184,-0.774145 1.5773002,-1.367808 2.3480912,-2.071912 0.644784,-0.588993 1.231388,-1.22611 1.718023,-1.948955 2.40223,-3.568286 5.742426,-5.816031 9.838295,-6.9988813 1.23494,-0.3566395 2.488944,-0.6606417 3.774306,-0.7197009 1.262372,-0.058002 1.875682,0.3211929 2.103975,1.6564852 0.113063,0.661278 0.114102,1.328347 0.02504,2.000585 -0.06235,0.470648 -0.289125,0.743789 -0.732497,0.856794 -0.840422,0.214207 -1.686175,0.409052 -2.52105,0.642885 -0.457299,0.128086 -0.933546,0.227441 -1.333627,0.489806 0.01391,0.203767 0.156631,0.193798 0.266588,0.223294 1.440578,0.386485 2.825469,0.903135 4.079916,1.729427 2.255104,1.485412 3.772299,3.525148 4.579983,6.096576 0.393433,1.252583 0.55411,2.538424 0.616267,3.849515 0.101851,2.148189 -0.210872,4.244058 -0.671696,6.356015 M 17.658881,12.154338 c -1.538565,1.091975 -2.867704,2.398447 -3.937899,3.951311 -0.844131,1.22484 -1.830283,2.301854 -3.017156,3.199693 -0.544422,0.41184 -1.0417058,0.879898 -1.4837983,1.402404 -1.3101388,1.548443 -1.4683752,3.518111 -0.4470456,5.272423 0.43283,0.743467 0.9978759,1.361629 1.6501269,1.912128 0.187954,0.15863 0.418662,0.318758 0.264307,0.631637 -0.132393,0.268369 -0.415662,0.38872 -0.7608129,0.303364 C 9.6881972,28.768343 9.4815576,28.640724 9.2926733,28.485523 8.8652501,28.134316 8.4957845,27.730807 8.1825524,27.273898 7.8305324,26.760412 7.5164137,26.224642 7.2186601,25.664372 6.8877111,26.869563 6.5791479,28.06647 6.5281182,29.308504 6.477157,30.548887 6.7430113,31.728196 7.2742345,32.850202 7.4382692,33.19667 7.3842802,33.454552 7.1425849,33.613048 6.9145052,33.762617 6.6117946,33.696869 6.3830679,33.42533 6.1352569,33.131132 5.9035575,32.825029 5.7542127,32.463283 5.2886175,31.335507 5.2035078,30.163479 5.3702132,28.970871 5.6090478,27.262243 5.9937889,25.585257 6.5217423,23.941556 6.7571362,23.208697 7.012647,22.484177 7.4234948,21.717806 6.1649617,22.457607 5.1722012,23.321647 4.4991228,24.513085 4.1803926,25.077277 3.8882617,25.656448 3.579796,26.226515 3.511007,26.353639 3.424472,26.483051 3.2487578,26.438109 3.0768133,26.394129 2.9503823,26.282529 2.927559,26.100427 2.903037,25.90476 2.897586,25.706487 2.950904,25.511117 3.3730087,23.96441 4.2554772,22.722893 5.4480004,21.672553 c 1.04586,-0.921158 2.2774276,-1.574088 3.3884044,-2.40099 1.3388502,-0.996503 2.5799092,-2.08357 3.5730762,-3.440255 1.036005,-1.4152 2.194625,-2.725783 3.556905,-3.837288 2.093274,-1.707939 4.454756,-2.8812704 7.096319,-3.4800584 0.138409,-0.031373 0.314125,-0.018418 0.401442,-0.1666613 0.0042,-0.095072 -0.036,-0.160081 -0.08371,-0.2216592 -0.262476,-0.3387629 -0.527606,-0.6754982 -0.7873,-1.016376 -0.428649,-0.5626536 -0.443826,-1.1501352 -0.0913,-1.7536627 0.09967,-0.1706347 0.20648,-0.3372701 0.314394,-0.5028859 0.407741,-0.6257672 0.827845,-1.2437916 1.222032,-1.8779507 0.2226,-0.3581225 0.185631,-0.6040885 -0.138155,-0.8355655 -0.736042,-0.5262041 -1.529326,-0.9519024 -2.390188,-1.24152703 -0.287767,-0.0968153 -0.512503,-0.002317 -0.6873,0.24171763 -0.155,0.2163926 -0.268659,0.453281 -0.372665,0.6960786 C 20.029547,2.8168688 19.546505,3.7655037 18.966107,4.6627886 18.858668,4.8288845 18.751592,5.0271207 18.515249,4.9898971 18.284643,4.9535784 18.218844,4.7336127 18.171726,4.5476967 18.044901,4.0472547 17.995124,3.5341323 17.962738,3.0187941 17.924928,2.4171657 17.885499,1.8151023 17.821887,1.2158701 17.792237,0.93656004 17.628517,0.73237394 17.337655,0.65243662 16.788936,0.50163295 16.227265,0.46716025 15.671826,0.55153538 14.845133,0.67711356 14.711549,0.86129354 14.709083,1.7073829 c -0.0015,0.505996 0.02184,1.0131492 -0.0047,1.5177485 -0.04515,0.8594047 -0.263747,1.6700517 -0.80732,2.360955 C 13.445151,6.1605394 13.06677,6.129541 12.778353,5.4691963 12.519398,4.8763373 12.312775,4.2605949 12.084054,3.6545763 11.726888,2.7082345 11.544681,1.7098959 11.224631,0.75303093 11.042093,0.20729728 10.721646,0.05102014 10.152517,0.15691498 9.1748741,0.33882091 8.2816066,0.74347869 7.4555286,1.2676517 6.5563974,1.8381785 6.541142,2.1456685 6.8905878,2.9461844 7.4788906,4.2938736 8.0633353,5.643745 8.3406154,7.1033625 8.5425677,8.166444 8.6726425,9.2242848 8.4689079,10.303722 8.1326261,12.0854 7.1912818,13.533176 5.9974062,14.844975 c -1.0207997,1.121627 -2.0720605,2.2159 -2.9527856,3.458355 -2.06169059,2.908453 -3.19448696,6.085429 -2.86359198,9.700942 0.14049562,1.535104 0.53245124,2.999961 1.16656348,4.400874 0.6468646,1.42908 1.4875802,2.737817 2.4401531,3.9837 1.4373635,1.879953 3.0916888,3.546741 4.9013857,5.060173 2.2013071,1.840922 4.5862291,3.413934 7.1605721,4.681733 1.635756,0.805573 3.304754,1.53456 5.162311,1.699922 1.097357,0.09769 2.118923,-0.07221 3.073105,-0.630734 1.69263,-0.990761 3.014743,-2.385217 4.189531,-3.920249 1.56659,-2.046991 2.758618,-4.305731 3.675743,-6.715726 1.021195,-2.683451 1.723177,-5.442669 1.905029,-8.308939 0.124041,-1.955149 0.01262,-3.906062 -0.586881,-5.79944 -0.579314,-1.829596 -1.553862,-3.420691 -2.921655,-4.756078 -1.413569,-1.38008 -3.11729,-2.270332 -5.011525,-2.807317 -0.263856,-0.0748 -0.526061,-0.156061 -0.78652,-0.241936 -0.136652,-0.04505 -0.297043,-0.111852 -0.307284,-0.262904 -0.01129,-0.166389 0.173766,-0.224903 0.295531,-0.269333 0.44284,-0.161589 0.890071,-0.315793 1.344752,-0.43925 0.804259,-0.218374 1.614992,-0.412941 2.423409,-0.615925 0.38372,-0.09635 0.547479,-0.369721 0.610188,-0.734306 0.13245,-0.770047 0.07885,-1.531206 -0.111117,-2.283946 C 28.598847,9.2303884 28.098615,8.8536614 27.264171,8.835922 26.511608,8.8199188 25.781101,8.9516457 25.047593,9.0960696 22.395064,9.618335 19.926449,10.580377 17.658879,12.154338 Z"
   id="path1"
   style="fill:none;stroke-width:0.0660091" /></svg>
