<?xml version="1.0" encoding="UTF-8" standalone="no"?>
<svg
   version="1.1"
   id="Layer_1"
   x="0px"
   y="0px"
   width="100%"
   viewBox="0 0 1024 1024"
   enable-background="new 0 0 1024 1024"
   xml:space="preserve"
   sodipodi:docname="logo.svg"
   inkscape:version="1.4 (86a8ad7, 2024-10-11)"
   xmlns:inkscape="http://www.inkscape.org/namespaces/inkscape"
   xmlns:sodipodi="http://sodipodi.sourceforge.net/DTD/sodipodi-0.dtd"
   xmlns="http://www.w3.org/2000/svg"
   xmlns:svg="http://www.w3.org/2000/svg"><defs
   id="defs2" /><sodipodi:namedview
   id="namedview2"
   pagecolor="#ffffff"
   bordercolor="#000000"
   borderopacity="0.25"
   inkscape:showpageshadow="2"
   inkscape:pageopacity="0.0"
   inkscape:pagecheckerboard="0"
   inkscape:deskcolor="#d1d1d1"
   inkscape:zoom="0.80585314"
   inkscape:cx="97.41229"
   inkscape:cy="528.6323"
   inkscape:window-width="2558"
   inkscape:window-height="1360"
   inkscape:window-x="2553"
   inkscape:window-y="0"
   inkscape:window-maximized="0"
   inkscape:current-layer="Layer_1" />
<path
   fill="#000000"
   opacity="1.000000"
   stroke="none"
   d=" M719.424683,625.212891   C710.252502,662.434814 697.653564,697.975769 680.276978,731.723511   C661.992859,767.233704 639.498657,799.750183 609.793457,826.725342   C595.084045,840.083008 579.328430,852.250427 559.192200,856.626343   C539.912354,860.815979 521.051758,857.854736 502.598724,852.215027   C476.049866,844.101074 451.203522,832.030518 427.179718,818.226562   C395.755981,800.170593 365.973572,779.720825 338.591522,755.967957   C303.695129,725.696533 272.377502,692.213623 248.236160,652.498413   C234.906662,630.569946 224.616730,607.424561 219.252762,582.201233   C213.693390,556.058960 212.985504,529.894592 217.293777,503.460663   C224.252411,460.765137 244.301208,424.484833 271.021362,391.322357   C284.304749,374.836334 299.575409,360.107941 312.989502,343.740417   C327.388947,326.170532 337.467133,306.503754 341.438416,284.003723   C344.237000,268.147644 341.469696,252.611588 338.341431,237.075272   C334.097595,215.998657 325.154663,196.656876 316.873596,177.051346   C311.009247,163.167343 312.780975,156.711182 325.622864,149.055313   C338.073456,141.632721 350.994629,135.148911 365.480042,132.337753   C379.260010,129.663498 384.669769,132.487015 388.046265,146.269928   C392.847229,165.867447 398.895782,185.032440 406.075897,203.868546   C407.801605,208.395691 409.704498,212.810760 412.219971,216.957855   C414.086060,220.034393 416.403564,220.507706 419.274017,218.334534   C425.821960,213.377197 429.274231,206.345428 431.675323,198.848480   C435.105103,188.139755 436.545135,177.126923 435.144989,165.855972   C434.460358,160.344574 435.209503,154.850845 435.918701,149.426163   C436.700684,143.445007 439.938293,139.406158 446.403503,138.469559   C455.361053,137.171921 464.381805,136.904190 473.241547,138.365143   C483.971802,140.134506 486.487549,143.399887 487.221344,154.369247   C488.063751,166.961899 488.301758,179.597092 490.248505,192.105469   C490.761902,195.403915 491.141510,198.725601 492.657135,201.729523   C494.548645,205.478394 496.418213,205.737259 498.841675,202.255310   C501.976654,197.750992 504.943604,193.091782 507.550537,188.265701   C513.328552,177.569061 518.744141,166.683807 523.529480,155.493988   C529.342590,141.900970 533.885498,139.995895 547.507385,145.354889   C557.630798,149.337494 567.009094,154.749802 576.109558,160.629852   C583.524109,165.420624 584.779297,171.382599 579.921387,178.963074   C573.187317,189.471252 566.131287,199.772812 559.375000,210.267075   C551.546082,222.427368 551.680054,228.129684 560.147278,239.838577   C563.753357,244.825180 567.825439,249.473160 571.625000,254.322617   C572.630249,255.605667 573.409973,257.065430 574.220093,258.329834   C572.874756,260.997742 570.535950,260.904968 568.498901,261.370636   C544.845459,266.778015 522.146301,274.845795 500.726227,286.264130   C466.382874,304.571472 437.946075,329.858765 413.974243,360.354431   C403.995544,373.048828 394.645874,386.301208 383.003815,397.576782   C370.296417,409.884094 356.267487,420.606018 341.815704,430.795319   C327.400757,440.958649 311.960754,449.644989 298.635986,461.388184   C280.719757,477.177765 267.428314,495.869263 260.966553,519.095764   C260.368225,521.246399 260.137268,523.378296 260.529053,525.505920   C260.871338,527.364685 261.903290,529.007751 263.932831,529.413513   C265.827240,529.792297 266.541626,528.099670 267.226532,526.865417   C271.184692,519.732849 275.243805,512.645081 278.889679,505.352600   C288.518799,486.092316 303.399811,471.965485 321.630066,461.064240   C324.255920,459.494080 326.394958,456.916779 329.780396,456.575226   C330.923157,458.756012 329.482300,460.415588 328.764099,461.812439   C314.601654,489.357208 307.805237,519.202515 301.451263,549.162109   C298.096436,564.980469 296.019348,581.001831 297.403229,597.217957   C298.584625,611.061646 302.533264,623.987061 311.674316,634.875793   C312.316376,635.640625 312.976959,636.395264 313.684082,637.099182   C315.824677,639.230164 318.250427,640.813843 321.193146,638.830627   C324.131073,636.850525 324.352234,633.910339 323.104156,630.823914   C321.295166,626.350403 319.202209,621.982117 317.581055,617.443726   C309.314545,594.301880 310.023468,570.781372 314.981903,547.146973   C317.027802,537.395020 319.334351,527.697632 321.523865,517.975830   C321.774231,516.863953 321.745667,515.590820 323.433380,515.016663   C325.785858,516.117493 326.301025,518.730530 327.344177,520.860291   C334.724335,535.927856 343.383545,550.044678 356.472351,560.965515   C359.061401,563.125793 361.891815,564.741943 365.064514,565.933960   C368.789490,567.333435 371.789795,566.324158 373.856567,563.314819   C376.192169,559.914246 373.455017,557.641479 371.145660,555.793091   C359.675293,546.611938 350.379944,535.709167 343.503418,522.658813   C329.503967,496.090546 334.067657,463.099182 354.451996,440.967285   C365.253784,429.239471 378.347107,420.245850 390.024109,409.579132   C399.792175,400.656250 408.678864,391.004333 416.051056,380.053680   C452.443329,325.996399 503.045197,291.944489 565.095032,274.025055   C583.803589,268.622192 602.800964,264.016754 622.273376,263.122040   C641.397522,262.243347 650.688782,267.987915 654.147278,288.216736   C655.860107,298.234680 655.875854,308.340363 654.526550,318.524353   C653.581970,325.654358 650.146484,329.792267 643.429688,331.504242   C630.697815,334.749329 617.885193,337.701111 605.237366,341.243530   C598.309570,343.183960 591.094727,344.689117 585.033752,348.663788   C585.244568,351.750732 587.406616,351.599701 589.072388,352.046539   C610.896240,357.901550 631.876465,365.728485 650.880554,378.246277   C685.043945,400.749329 708.028503,431.650055 720.264404,470.605560   C726.224670,489.581390 728.658813,509.061066 729.600464,528.923279   C731.143433,561.466980 726.405884,593.218079 719.424683,625.212891  M482.026276,315.559723   C458.717987,332.102448 438.582367,351.894684 422.369598,375.419586   C409.581543,393.975128 394.641968,410.291229 376.661591,423.892914   C368.413940,430.132019 360.880402,437.222809 354.182983,445.138458   C334.335205,468.596375 331.938019,498.435608 347.410522,525.012329   C353.967621,536.275391 362.527710,545.640137 372.408905,553.979858   C375.256287,556.382996 378.751373,558.808838 376.412994,563.548767   C374.407318,567.614380 370.115967,569.437622 364.887146,568.144531   C361.275452,567.251404 358.144989,565.318054 355.283508,562.966858   C348.808319,557.646301 343.211151,551.533386 338.465881,544.611511   C333.132996,536.832520 328.374298,528.715942 323.863525,520.228210   C318.849854,538.486084 314.175323,556.618469 313.402252,575.434509   C312.630219,594.225525 316.657745,612.091309 324.705444,629.088989   C327.190460,634.337769 326.372559,638.244507 322.711029,640.645630   C319.255768,642.911499 314.669891,641.915466 311.204834,637.801819   C307.450653,633.344910 303.940552,628.707642 301.678070,623.227417   C294.624603,606.142334 293.335236,588.386841 295.860718,570.319580   C299.478912,544.434937 305.307495,519.029663 313.305664,494.128632   C316.871735,483.026276 320.742554,472.050262 326.966644,460.440216   C307.900665,471.647736 292.860962,484.737396 282.664246,502.786926   C277.835693,511.334076 273.410095,520.108154 268.737030,528.744324   C267.694916,530.670166 266.383972,532.630676 263.722015,531.949829   C261.117157,531.283569 259.201813,529.592896 258.856049,526.834167   C258.484558,523.869934 258.401978,520.866211 259.209717,517.906494   C265.604340,494.474854 278.973175,475.666656 297.039154,459.754669   C312.883270,445.799713 331.540741,435.908234 348.371338,423.381195   C368.654083,408.284790 387.455353,391.816406 402.501190,371.263489   C418.196014,349.824097 435.748383,329.969604 456.386047,313.131012   C488.097839,287.256805 523.872803,269.481567 563.890808,260.410309   C565.987610,259.934998 568.649597,260.131317 569.972412,257.885498   C570.035278,256.445221 569.427002,255.460373 568.704224,254.527496   C564.727905,249.395462 560.711365,244.294128 556.777161,239.130051   C550.283386,230.606201 550.053467,221.706223 555.393982,212.563156   C556.903931,209.978149 558.522034,207.453735 560.156860,204.944763   C566.333862,195.464783 572.698181,186.102097 578.669861,176.494995   C582.042114,171.069656 581.482056,167.343430 576.576904,163.836700   C565.426331,155.865036 553.408569,149.415985 540.367065,145.028351   C536.007568,143.561661 532.602966,144.993210 529.954895,148.690216   C527.606750,151.968430 525.884888,155.557144 524.309265,159.235367   C517.940369,174.102951 510.622589,188.474167 501.829926,202.067474   C500.202301,204.583725 498.580170,207.586868 494.999725,207.022964   C491.506195,206.472748 490.509369,203.140411 489.795563,200.323898   C487.874237,192.742523 487.120148,184.969040 486.629517,177.161987   C486.056732,168.047699 485.459412,158.926819 484.495728,149.848831   C484.046539,145.617462 481.566284,142.524170 477.159912,141.313171   C468.847168,139.028595 460.338196,138.506348 451.923645,139.784576   C439.399780,141.687012 437.376068,144.477219 437.338715,157.294937   C437.316376,164.960464 437.669586,172.643509 437.267944,180.287872   C436.583862,193.307312 433.272339,205.588104 425.037537,216.054855   C418.190704,224.757446 412.458466,224.287842 408.089142,214.284042   C404.166382,205.302597 401.036194,195.974487 397.571198,186.793686   C392.160370,172.457214 389.400055,157.333008 384.551483,142.837112   C381.786163,134.569595 376.931580,132.202087 368.309631,133.806335   C353.498962,136.562088 339.966522,142.692398 327.451965,150.633286   C313.830688,159.276413 313.599579,163.934692 318.893463,176.061996   C327.805878,196.478638 336.659851,216.928345 340.860474,239.040634   C343.919922,255.145645 345.890472,271.171265 342.804016,287.524048   C337.709564,314.515350 323.448792,336.448242 305.362335,356.321167   C289.897858,373.313110 273.971924,389.890656 260.629486,408.713074   C229.396179,452.774292 212.235031,500.903473 217.247879,555.676208   C219.376297,578.932068 225.314178,601.123718 234.920578,622.346680   C244.720169,643.996338 257.456482,663.822876 271.887360,682.697205   C293.662506,711.177307 318.724487,736.428101 346.140259,759.355652   C379.488678,787.244446 415.618744,811.074585 454.618408,830.280945   C479.399078,842.484863 504.683350,853.528564 532.824158,856.033691   C549.448425,857.513672 564.924500,854.939697 579.379761,846.478455   C605.022034,831.469055 625.051208,810.343933 642.848511,787.089172   C666.581360,756.078552 684.639832,721.860046 698.533691,685.350159   C714.004150,644.697571 724.638733,602.897156 727.393677,559.474976   C729.272827,529.855713 727.584900,500.300598 718.502808,471.617126   C709.726562,443.899902 694.962769,419.795807 674.241577,399.565552   C652.826904,378.658203 627.016602,365.171448 598.320129,357.036469   C594.322876,355.903320 590.350647,354.672241 586.404846,353.371277   C584.334656,352.688721 581.904846,351.676788 581.749695,349.388458   C581.578735,346.867767 584.382141,345.981323 586.226807,345.308228   C592.935547,342.860260 599.710815,340.524170 606.598938,338.653870   C618.782959,335.345642 631.065063,332.398071 643.312073,329.322998   C649.125183,327.863403 651.606018,323.721954 652.556030,318.198730   C654.562561,306.532990 653.750488,295.001923 650.872681,283.598389   C647.759888,271.263733 640.181702,265.556549 627.540405,265.287811   C616.139526,265.045380 605.072815,267.040955 593.960632,269.228882   C553.776489,277.140869 516.378540,291.715210 482.026276,315.559723  z"
   id="path1"
   style="fill:none" />
<path
   fill="#000000"
   opacity="1.000000"
   d=" M319.889252,250.340851   C321.117096,257.641235 322.439758,264.504639 323.261200,271.427551   C326.308563,297.109802 316.026123,318.507660 301.330902,338.403046   C289.729706,354.109528 275.492584,367.497894 262.660553,382.123505   C259.331482,385.917908 256.605499,390.295319 252.132797,393.862335   C250.542267,387.322235 253.035019,381.833801 254.029373,376.280609   C256.432312,362.860779 257.723145,349.348236 258.746277,335.771271   C260.387207,313.995605 260.022339,292.207275 259.597931,270.419006   C259.436462,262.130157 258.769958,253.841064 258.048401,245.576981   C257.608643,240.540085 258.600708,236.447357 262.996063,233.394562   C276.342621,224.124710 291.216309,221.173050 307.078064,222.965942   C311.920685,223.513290 315.056000,227.174194 316.191681,231.874054   C317.631378,237.832138 318.588654,243.906799 319.889252,250.340851  M283.942047,355.451935   C292.632294,346.646484 300.203827,336.925415 306.737030,326.459778   C316.044403,311.550140 322.608368,295.645782 321.475403,277.605743   C320.537415,262.670410 317.593201,248.005005 314.426575,233.409927   C313.288452,228.164368 308.872192,224.777832 303.108429,224.451111   C290.132019,223.715576 278.038025,226.860580 266.858582,233.424942   C262.266998,236.121063 259.707306,239.755051 260.188049,245.658554   C261.212433,258.237701 261.863434,270.859985 262.221130,283.477203   C262.598328,296.781372 262.082977,310.081482 261.458099,323.389893   C260.662781,340.327606 259.580566,357.196503 256.478638,373.892365   C255.658234,378.308167 255.033310,382.760254 254.196060,387.956268   C264.393951,376.812469 273.928223,366.393860 283.942047,355.451935  z"
   id="path2"
   style="stroke:none;fill:none" />
<path
   style="fill:#34ac60;stroke-width:0.877464;fill-opacity:1;stroke:#1f5c35;stroke-opacity:1"
   d="M 524.83843,854.58556 C 504.14994,851.36825 484.22844,844.15159 453.20994,828.63776 398.91782,801.4837 354.18285,769.31337 311.90251,727.01913 266.25697,681.35859 236.50746,635.34388 224.5122,591.84919 c -5.00562,-18.15034 -6.58642,-29.08761 -7.10208,-49.13796 -0.68746,-26.73089 2.39417,-47.08958 10.75832,-71.07455 11.8421,-33.95829 30.19264,-62.78362 62.7693,-98.599 6.96556,-7.65807 14.96746,-16.54239 17.78198,-19.74293 16.69856,-18.98881 27.3314,-37.80987 32.78266,-58.02825 3.07555,-11.40705 3.75908,-30.54364 1.62051,-45.36957 -2.94701,-20.43054 -7.92233,-36.63005 -20.02193,-65.19085 -6.76861,-15.97711 -7.72502,-20.18725 -5.54402,-24.40485 5.08735,-9.83784 43.50063,-27.67551 56.49752,-26.2353 6.80987,0.75461 8.87941,4.03301 13.68827,21.68386 7.7561,28.46865 19.30157,60.14244 23.42605,64.26692 3.93816,3.93815 7.25147,3.36306 12.59647,-2.18638 5.4095,-5.6164 9.59563,-14.01973 11.97533,-24.03953 1.44845,-6.09871 1.83174,-11.04792 2.0194,-26.07474 0.27254,-21.82439 0.645,-23.13333 7.31473,-25.70662 3.32337,-1.2822 6.62922,-1.61527 16.0324,-1.61527 13.8939,0 19.30129,1.45582 21.5485,5.80144 0.89899,1.73847 1.89151,9.55905 3.06533,24.15339 2.67501,33.25895 4.86173,39.61052 12.61307,36.63605 2.87224,-1.10219 16.51977,-25.25734 25.09715,-44.42015 5.5403,-12.37766 9.38525,-17.34488 13.42556,-17.34423 8.49864,10e-4 40.09244,17.16145 42.88647,23.29369 1.35551,2.97502 0.4996,4.62977 -13.50351,26.10639 -12.73088,19.5254 -14.75382,23.76307 -14.75382,30.90636 0,6.36903 1.91403,10.22868 10.57734,21.32936 3.89054,4.98511 6.95037,9.70429 6.79963,10.48706 -0.20072,1.04221 -3.67911,2.29691 -12.99349,4.6869 -20.97567,5.38217 -40.64042,13.07754 -58.34749,22.83302 -37.21526,20.50326 -63.96546,44.67238 -96.06429,86.79517 -10.14396,13.31178 -27.50903,30.87138 -41.859,42.32793 -5.88009,4.69446 -20.01427,14.83723 -31.40928,22.53948 -24.17581,16.34119 -30.49518,21.33841 -41.36747,32.71249 -12.22646,12.79077 -20.7144,26.49736 -25.90316,41.82925 -4.51006,13.32643 -2.97102,21.61487 3.8894,20.94626 2.64117,-0.2574 3.23908,-1.11074 11.83494,-16.89078 10.06667,-18.48009 14.98637,-25.58374 23.17407,-33.46148 8.27049,-7.95739 22.43694,-18.79973 24.56347,-18.79973 0.34093,0 -0.77728,3.06015 -2.48493,6.80034 -9.69906,21.2435 -21.7002,66.39114 -26.13169,98.30609 -4.16908,30.02508 1.87431,56.90517 15.96092,70.99179 2.38477,2.38475 3.5663,2.89936 6.60433,2.87645 4.02857,-0.0304 5.89906,-1.06696 7.56365,-4.19152 1.34353,-2.5219 0.78484,-5.14256 -3.0192,-14.1623 -8.84144,-20.96384 -11.11588,-42.89092 -6.96749,-67.17098 1.68058,-9.83619 7.51226,-33.78308 8.22636,-33.78026 0.29098,10e-4 1.69466,2.23274 3.11931,4.9591 5.25691,10.06024 14.88813,23.49486 21.63455,30.17811 11.71051,11.60085 20.73194,14.29437 26.44871,7.89676 4.13706,-4.62979 3.48577,-6.10648 -7.25203,-16.44243 -5.31578,-5.11685 -11.59711,-11.91039 -13.95853,-15.09674 -18.82446,-25.40061 -21.2643,-52.80414 -6.93828,-77.92878 4.83989,-8.48808 17.19716,-21.56143 31.00059,-32.79702 20.03664,-16.30921 26.01989,-22.69116 44.76339,-47.74624 6.85962,-9.16949 15.70929,-20.15182 19.66592,-24.40516 25.09295,-26.97473 53.00838,-46.66072 87.37189,-61.61475 29.80011,-12.96818 71.05227,-23.32035 93.88861,-23.56122 9.07236,-0.0957 9.96832,0.0563 14.91688,2.53058 4.30078,2.15039 5.7812,3.49934 8.08518,7.36715 4.19625,7.04446 5.93723,15.85458 5.91356,29.92505 -0.0171,10.17437 -0.28264,12.42339 -1.88185,15.9397 -1.02405,2.25167 -2.78727,4.69522 -3.91828,5.43013 -1.131,0.73489 -10.92014,3.55511 -21.75363,6.26716 -19.73341,4.94003 -36.98373,10.09937 -41.50582,12.41384 -3.29613,1.68701 -3.28043,5.08366 0.0314,6.79628 1.34444,0.69524 7.88263,2.90639 14.52931,4.91367 45.13283,13.62998 75.95221,35.87521 99.69828,71.96158 29.42948,44.7233 36.96541,105.12336 22.33362,179.00257 -9.11309,46.01407 -28.14947,97.66038 -50.29499,136.45198 -29.50575,51.68424 -71.10877,94.83008 -102.57805,106.38206 -12.33803,4.52914 -27.07785,5.64656 -42.61381,3.23053 z"
   id="path3" /><path
   style="fill:#34ac60;fill-opacity:1;stroke:#1f5c35;stroke-opacity:1"
   d="m 255.22848,384.10968 c 0.91365,-3.16288 4.00078,-24.70054 4.87369,-34.00171 2.77401,-29.55827 3.20566,-70.28032 1.03707,-97.83719 -1.01758,-12.93062 0.30834,-15.49122 10.75544,-20.77075 8.21855,-4.15332 17.64805,-6.43062 26.62687,-6.43062 12.30844,0 13.98197,1.66989 17.24878,17.21123 5.10845,24.30266 6.25748,41.99508 3.51538,54.12883 -2.78289,12.31426 -10.03198,26.4844 -21.32456,41.68411 -4.54751,6.12091 -41.81471,47.55166 -42.773,47.55166 -0.22178,0 -0.20363,-0.691 0.0403,-1.53556 z"
   id="path4" /></svg>
